<?xml version="1.0" standalone="no" ?>
<!DOCTYPE svg PUBLIC "-//W3C//DTD SVG 1.1//EN" "http://www.w3.org/Graphics/SVG/1.1/DTD/svg11.dtd">
<svg xmlns="http://www.w3.org/2000/svg">
    <metadata>Generated by IcoMoon</metadata>
    <defs>
        <font id="fotf-icon" horiz-adv-x="1024">
            <font-face units-per-em="1024" ascent="960" descent="-64" />
            <missing-glyph horiz-adv-x="1024" />
            <glyph unicode="&#x20;" horiz-adv-x="512" d="" />
            <glyph unicode="&#xe900;" glyph-name="logoUspsLong" horiz-adv-x="5920" d="M1552.106 959.977l0.032 0.023h-1350.505c0 0-0.813-4.591-0.813-4.591s793.951-163.623 809.681-166.437c182.415-32.318 176.77-67.642 176.77-67.642 127.829 0.643 143.534-4.547 165.88-23.238 67.199-56.355-42.049-222.396-42.049-222.396-15.618-11.576-1196.661-469.359-1196.661-469.359s1235.618 0 1235.618 0l202.047 953.639zM1811.064 959.994c0 0-20.594-97.261-51.311-242.368-18.381-83.73 37.881-121.655 131.59-121.655 94.068 0 165.563 37.929 183.465 121.655 52.183 242.381-0.556-0.013 52.186 242.368 0 0-78.655 0-78.655 0s-39.729-186.461-46.618-218.376c-11.854-55.914-41.239-89.309-98.864-89.309-60.192 0.482-72.529 33.919-60.195 89.309-1.402-5.587 46.803 218.376 46.803 218.376s-78.405 0-78.405 0zM2202.337 959.994l-75.589-357.55h69.643l55.002 265.357h1.564l87.978-265.357h98.864l75.464 357.55h-69.518l-56.129-268.309h-0.939l-84.537 268.309h-101.805zM2590.663 959.994l-75.4-357.55h78.466l75.525 357.55h-78.591zM2721.879 959.994l-12.452-56.901h110.817l-63.636-300.652h78.53l63.575 300.652h110.753l11.951 56.901h-299.537zM3074.162 959.994l-76.025-357.55h258.177l12.014 56.901h-179.272l20.399 97.727h156.432l11.325 52.821h-156.371l19.773 93.203h179.46l11.826 56.901h-257.737zM3389.153 959.994l-75.4-357.55c0 0 160.876 0 160.876 0 99.396 0 194.765 65.78 216.188 194.448 15.298 91.245-20.97 163.108-128.774 163.108 0 0-172.89 0-172.89 0zM3979.667 959.994c-92.306 0-138.196-32.896-145.043-84.347-11.413-85.659 139.587-136.563 128.214-187.853-7.008-29.986-43.728-28.451-73.523-28.451 0 0-96.801 0-96.801 0l-12.014-56.901c0 0 120.265 0 120.265 0 98.393 0 141.096 35.43 148.987 84.347 14.336 87.749-139.059 133.064-127.086 189.863 3.925 17.485 23.222 26.441 65.952 26.441 0 0 83.973 0 83.973 0l12.327 56.901h-105.249zM4125.273 959.994l-12.327-56.901h110.753l-63.575-300.652h78.466l63.575 300.652h110.817l11.951 56.901h-299.662zM4508.089 959.994l-204.113-357.55h78.53l156.432 286.648 31.349-229.744h-112.381l-30.723-56.901h230.394l-55.566 357.55h-93.921zM4688.674 959.994l-12.389-56.901h110.753l-63.575-300.652h78.466l63.575 300.652h110.692l12.014 56.901h-299.537zM5040.572 959.994l-76.089-357.55h258.302l12.015 56.901h-179.461l20.398 97.727h156.496l11.388 52.821h-156.432l19.898 93.203h179.272l11.952 56.901h-257.738zM5471.028 959.994c-92.428 0-138.139-32.896-145.107-84.347-11.413-85.659 139.587-136.563 128.214-187.853-7.008-29.986-43.792-28.451-73.587-28.451 0 0-96.862 0-96.862 0l-11.889-56.901c0 0 120.14 0 120.14 0 98.394 0 141.166 35.43 149.176 84.347 14.296 87.749-139.129 133.064-127.275 189.863 4.005 17.485 23.41 26.441 66.138 26.441 0 0 83.784 0 83.784 0l12.577 56.901h-105.31zM3456.227 903.092c0 0 80.094 0 80.094 0 64.998 0 88.234-48.402 78.341-105.201-13.856-80.311-65.042-138.55-153.866-138.55 0 0-56.129 0-56.129 0l51.561 243.751zM850.369 739.479c-35.805 0.282-61.002-0.234-63.886-0.063 0 0-631.233 0-631.233 0h-0.125c0 0-155.125-733.334-155.125-733.334s475.147 234.049 533.263 264.035c119.057 61.381 283.707 142.496 435.869 194.51 28.994 9.848 153.19 48.293 225.514 61.236 28.033 5.024 39.97 9.808 39.608 15.073-1.081 15.033-29.292 16.023-77.028 13.692-145.648-6.874-424.752-118.446-505.102-160.973 0 0-90.669 282.124-90.669 282.124s579.493 0 579.493 0c19.511 54.882-183.158 62.854-290.579 63.699zM1157.601 671.522c-4.205 0-7.816-2.851-12.702-9.484-4.445-5.748-8.052-9.622-19.585-15.45-17.901-8.843-64.696-13.79-86.6-15.639-21.025-1.769-26.734-3.899-27.094-12.059-0.202-7.275 3.134-11.431 33.29-11.431 69.399 0 194.313 26.276 231.957 14.257 19.863-6.391 3.909-41.913-12.389-88.621-6.327-18.048 6.057-16.774 13.265-8.856 7.208 7.959 39.589 67.481 43.113 97.789 5.006 43.051-31.794 49.492-82.535 49.492 0 0-80.718 0-80.718 0zM2333.915 185.403c22.787 106.156-40.325 184.965-149.611 184.965-110.247 0-202.105-57.824-229.016-184.965-21.265-101.696 40.345-185.403 150.111-185.403 111.292 0 200.685 55.248 228.516 185.403zM5328.647 370.368c-109.328 0-214.535-56.779-241.408-184.965-27.273-128.106 53.633-185.403 163.003-185.403 30.235 0 59.224 3.429 87.977 7.851 0 0 19.336 61.487 19.336 61.487-28.274-7.034-58.203-12.561-95.487-12.561-71.043 0-111.158 47.833-94.3 128.627 16.9 80.794 77.46 128.186 148.423 128.186 36.363 0 61.128-4.982 83.474-11.493 0 0 7.008 60.294 7.008 60.294-25.27 4.462-51.596 7.976-78.027 7.976zM2525.887 363.962c-92.466 0-138.241-32.938-145.168-84.347-11.413-85.778 139.568-136.608 128.275-187.978-6.968-29.906-43.792-28.388-73.587-28.388 0 0-96.862 0-96.862 0l-12.014-56.84c0 0 120.329 0 120.329 0 98.355 0 141.058 35.408 148.987 84.286 14.416 87.707-139.043 133.129-127.15 189.924 3.965 17.485 23.352 26.442 66.202 26.442 0 0 83.784 0 83.784 0l12.515 56.901h-105.31zM2671.433 363.962l-12.389-56.901h110.753l-63.575-300.652h78.466l63.7 300.652h110.693l11.826 56.901h-299.476zM3818.020 363.962c-92.466 0-138.219-32.938-145.107-84.347-11.494-85.778 139.504-136.608 128.214-187.978-6.968-29.906-43.792-28.388-73.587-28.388 0 0-96.862 0-96.862 0l-11.951-56.84c0 0 120.265 0 120.265 0 98.316 0 141.058 35.408 148.987 84.286 14.416 87.707-139.007 133.129-127.275 189.924 4.004 17.485 23.472 26.442 66.202 26.442 0 0 83.909 0 83.909 0l12.39 56.901h-105.185zM3991.22 363.962l-76.025-357.55h258.362l11.889 56.84h-179.333l20.399 97.789h156.496l11.388 52.882h-156.432l19.773 93.142h179.396l11.826 56.901h-257.737zM4306.026 363.962l-75.525-357.55h78.466l63.575 301.154c0 0 70.521 0 70.521 0 43.693 0 47.621-24.384 43.173-46.852-8.37-42.366-45.166-59.29-85.412-59.29-7.449 0-19.956-0.523-29.847 1.005 0 0 64.638-196.018 64.638-196.018h85.911c0 0-58.631 154.127-58.631 154.127 52.183 7.436 96.961 44.804 101.805 112.172 4.565 59.853-23.252 91.258-92.732 91.258 0 0-165.944 0-165.944 0zM5470.073 363.962l-75.839-357.55h258.302l11.889 56.84h-179.272l20.336 97.789h156.496l11.388 52.882h-156.432l19.898 93.142h179.272l11.889 56.901h-257.926zM1685.174 363.898l-75.525-357.486h78.53l63.575 300.652c0 0 64.011 0 64.011 0 28.914 0 48.668-14.413 40.297-53.322-4.405-21.424-23.865-58.348-77.527-58.348-11.894 0-24.774 1.507-34.664 2.512 0 0 3.942-51.94 3.942-51.94 11.373-1.005 24.839-2.889 37.295-2.889 70.521 0 132.59 40.826 147.045 108.719 9.411 44.82 0.443 112.108-76.528 112.108 0 0-170.449 0-170.449 0zM3054.773 363.898l-203.989-357.486h78.341l156.621 286.709 31.161-229.869h-112.195l-30.786-56.84h230.394l-55.502 357.486h-94.046zM3320.77 363.898l-75.464-357.486h240.969l12.389 56.84h-162.439l63.575 300.652h-79.030zM4606.399 363.898l53.624-357.486h92.796l202.8 357.486h-77.528l-156.432-286.774-36.792 286.774h-78.466zM5002.926 363.898l-75.464-357.486h78.466l75.525 357.486h-78.53zM2171.909 313.572c72.526 0 96.91-55.795 81.532-128.186-17.020-80.794-64.655-128.627-135.659-128.627-73.564 0-97.913 59.329-82.535 128.627 18.382 80.794 65.657 128.186 136.659 128.186zM5742.545 48.712c0 38.155 29.091 67.504 65.455 67.504s65.455-29.35 65.455-67.504c0-39.622-29.091-68.972-65.455-68.972-37.818 0-65.455 29.35-65.455 68.972zM5728 48.712c0-45.492 36.364-80.712 80-80.712s80 35.22 80 80.712c0 45.492-36.364 79.244-80 79.244-43.636 1.467-80-33.752-80-79.244zM5778.91 1.752h13.090v39.622h16l24.727-41.090h16c0 0-26.182 41.090-26.182 41.090 14.545 1.467 24.727 8.805 24.727 24.947 0 17.61-10.182 26.415-32 26.415 0 0-36.364 0-36.364 0v-90.984zM5792 83.931c0 0 18.909 0 18.909 0 10.182 0 20.364-1.467 20.364-14.675 0-14.675-11.636-16.142-24.727-16.142 0 0-14.545 0-14.545 0v30.817zM1733.823 512h-0.279l-5.544-64h4026.575l5.425 64h-4026.177z" />
            <glyph unicode="&#xe901;" glyph-name="logoUspsShort" horiz-adv-x="1718" d="M1534.499 85.38c0 39.385 30.029 69.682 67.566 69.682s67.566-30.296 67.566-69.682c0-40.9-30.029-71.197-67.566-71.197-39.038 0-67.566 30.296-67.566 71.197zM1519.484 85.38c0-46.959 37.537-83.315 82.581-83.315s82.581 36.356 82.581 83.315c0 46.959-37.537 81.8-82.581 81.8-45.044 1.515-82.581-34.841-82.581-81.8zM1572.036 36.905h13.513v40.9h16.516l25.525-42.415h16.516c0 0-27.026 42.415-27.026 42.415 15.015 1.515 25.525 9.089 25.525 25.752 0 18.178-10.51 27.267-33.032 27.267 0 0-37.537 0-37.537 0v-93.919zM1585.548 121.735c0 0 19.519 0 19.519 0 10.51 0 21.020-1.515 21.020-15.148 0-15.148-12.012-16.663-25.525-16.663 0 0-15.015 0-15.015 0v31.811zM1602.174 959.976l0.033 0.024h-1394.069c0 0-0.84-4.739-0.84-4.739s819.562-168.901 835.8-171.806c188.299-33.36 182.472-69.824 182.472-69.824 131.953 0.664 148.164-4.694 171.231-23.988 69.366-58.173-43.405-229.57-43.405-229.57-16.122-11.95-1235.263-484.5-1235.263-484.5s1275.477 0 1275.477 0l208.565 984.402zM877.8 732.365c-36.96 0.291-62.97-0.241-65.947-0.065 0 0-651.595 0-651.595 0h-0.129c0 0-160.129-756.99-160.129-756.99s490.474 241.599 550.465 272.553c122.898 63.361 292.859 147.093 449.929 200.784 29.929 10.166 158.132 49.851 232.789 63.211 28.937 5.187 41.259 10.124 40.886 15.56-1.116 15.518-30.237 16.54-79.512 14.133-150.347-7.095-438.453-122.267-521.395-166.166 0 0-93.594 291.224-93.594 291.224s598.186 0 598.186 0c20.14 56.652-189.066 64.881-299.953 65.754zM1194.943 662.216c-4.341 0-8.069-2.943-13.112-9.79-4.589-5.933-8.312-9.932-20.217-15.949-18.478-9.128-66.783-14.235-89.394-16.143-21.703-1.826-27.596-4.025-27.968-12.448-0.208-7.51 3.235-11.799 34.364-11.799 71.638 0 200.581 27.123 239.44 14.717 20.504-6.597 4.036-43.265-12.789-91.479-6.531-18.63 6.252-17.315 13.693-9.141 7.441 8.216 40.866 69.658 44.503 100.943 5.167 44.44-32.82 51.089-85.197 51.089 0 0-83.322 0-83.322 0z" />
            <glyph unicode="&#xe902;" glyph-name="iconDividerSlanted" horiz-adv-x="208" d="M173.559 960h34.712l-173.559-1024h-34.712z" />
            <glyph unicode="&#xe903;" glyph-name="iconDiagramFill" horiz-adv-x="1365" d="M512 746.667v85.333c0 70.692 57.308 128 128 128h85.333c70.692 0 128-57.308 128-128v-85.333c0-70.692-57.308-128-128-128v-85.333h469.333c23.564 0 42.667-19.103 42.667-42.667v-85.333c0-23.564-19.103-42.667-42.667-42.667s-42.667 19.103-42.667 42.667v42.667h-426.667v-42.667c0-23.564-19.103-42.667-42.667-42.667s-42.667 19.103-42.667 42.667v42.667h-426.667v-42.667c0-23.564-19.103-42.667-42.667-42.667s-42.667 19.103-42.667 42.667v85.333c0 23.564 19.103 42.667 42.667 42.667h469.333v85.333c-70.692 0-128 57.308-128 128zM0 64v85.333c0 70.692 57.308 128 128 128h85.333c70.692 0 128-57.308 128-128v-85.333c0-70.692-57.308-128-128-128h-85.333c-70.692 0-128 57.308-128 128zM512 64v85.333c0 70.692 57.308 128 128 128h85.333c70.692 0 128-57.308 128-128v-85.333c0-70.692-57.308-128-128-128h-85.333c-70.692 0-128 57.308-128 128zM1024 64v85.333c0 70.692 57.308 128 128 128h85.333c70.692 0 128-57.308 128-128v-85.333c0-70.692-57.308-128-128-128h-85.333c-70.692 0-128 57.308-128 128z" />
            <glyph unicode="&#xe904;" glyph-name="iconDiagramOutline" horiz-adv-x="1365" d="M512 746.667v85.333c0 70.692 57.308 128 128 128h85.333c70.692 0 128-57.308 128-128v-85.333c0-70.692-57.308-128-128-128v-85.333h469.333c23.564 0 42.667-19.103 42.667-42.667v-85.333c0-23.564-19.103-42.667-42.667-42.667s-42.667 19.103-42.667 42.667v42.667h-426.667v-42.667c0-23.564-19.103-42.667-42.667-42.667s-42.667 19.103-42.667 42.667v42.667h-426.667v-42.667c0-23.564-19.103-42.667-42.667-42.667s-42.667 19.103-42.667 42.667v85.333c0 23.564 19.103 42.667 42.667 42.667h469.333v85.333c-70.692 0-128 57.308-128 128zM0 64v85.333c0 70.692 57.308 128 128 128h85.333c70.692 0 128-57.308 128-128v-85.333c0-70.692-57.308-128-128-128h-85.333c-70.692 0-128 57.308-128 128zM512 64v85.333c0 70.692 57.308 128 128 128h85.333c70.692 0 128-57.308 128-128v-85.333c0-70.692-57.308-128-128-128h-85.333c-70.692 0-128 57.308-128 128zM1024 64v85.333c0 70.692 57.308 128 128 128h85.333c70.692 0 128-57.308 128-128v-85.333c0-70.692-57.308-128-128-128h-85.333c-70.692 0-128 57.308-128 128zM640 704h85.333c23.564 0 42.667 19.103 42.667 42.667v85.333c0 23.564-19.103 42.667-42.667 42.667h-85.333c-23.564 0-42.667-19.103-42.667-42.667v-85.333c0-23.564 19.103-42.667 42.667-42.667zM213.333 192h-85.333c-23.564 0-42.667-19.103-42.667-42.667v-85.333c0-23.564 19.103-42.667 42.667-42.667h85.333c23.564 0 42.667 19.103 42.667 42.667v85.333c0 23.564-19.103 42.667-42.667 42.667zM725.333 192h-85.333c-23.564 0-42.667-19.103-42.667-42.667v-85.333c0-23.564 19.103-42.667 42.667-42.667h85.333c23.564 0 42.667 19.103 42.667 42.667v85.333c0 23.564-19.103 42.667-42.667 42.667zM1237.333 192h-85.333c-23.564 0-42.667-19.103-42.667-42.667v-85.333c0-23.564 19.103-42.667 42.667-42.667h85.333c23.564 0 42.667 19.103 42.667 42.667v85.333c0 23.564-19.103 42.667-42.667 42.667z" />
            <glyph unicode="&#xe905;" glyph-name="iconGearFill" d="M608.32 871.040l-6.4 21.76c-26.432 89.6-153.408 89.6-179.84 0l-6.4-21.76c-11.736-39.863-48.327-67.233-89.881-67.233-15.666 0-31.083 3.928-44.839 11.425l-19.84 10.88c-82.112 44.672-171.904-45.12-127.168-127.168l10.816-19.904c28.544-52.48 1.472-117.824-55.808-134.72l-21.76-6.4c-89.6-26.432-89.6-153.408 0-179.84l21.76-6.4c39.863-11.736 67.233-48.327 67.233-89.881 0-15.666-3.928-31.083-11.425-44.839l-10.88-19.84c-44.672-82.112 45.12-171.904 127.168-127.168l19.904 10.816c13.756 7.497 29.172 11.425 44.839 11.425 41.555 0 78.145-27.37 89.881-67.233l6.4-21.76c26.432-89.6 153.408-89.6 179.84 0l6.4 21.76c11.736 39.863 48.327 67.233 89.881 67.233 15.666 0 31.083-3.928 44.839-11.425l19.84-10.88c82.112-44.672 171.904 45.12 127.168 127.168l-10.816 19.904c-7.497 13.756-11.425 29.172-11.425 44.839 0 41.555 27.37 78.145 67.233 89.881l21.76 6.4c89.6 26.432 89.6 153.408 0 179.84l-21.76 6.4c-39.863 11.736-67.233 48.327-67.233 89.881 0 15.666 3.928 31.083 11.425 44.839l10.88 19.84c44.672 82.112-45.12 171.904-127.168 127.168l-19.904-10.816c-13.756-7.497-29.172-11.425-44.839-11.425-41.555 0-78.145 27.37-89.881 67.233zM512 260.608v-0.128c-103.564 0-187.52 83.956-187.52 187.52s83.956 187.52 187.52 187.52c103.529 0 187.456-83.927 187.456-187.456s-83.927-187.456-187.456-187.456z" />
            <glyph unicode="&#xe906;" glyph-name="iconGearOutline" d="M632.96 853.632l-6.016 20.416c-33.728 114.56-196.16 114.56-229.888 0l-6.016-20.416c-7.001-23.768-28.818-40.086-53.596-40.086-9.337 0-18.525 2.34-26.724 6.806l-18.688 10.24c-104.96 57.088-219.712-57.728-162.56-162.624l10.176-18.688c4.466-8.2 6.806-17.388 6.806-26.724 0-24.777-16.318-46.595-40.086-53.596l-20.416-6.016c-114.56-33.728-114.56-196.16 0-229.888l20.416-6.016c23.768-7.001 40.086-28.818 40.086-53.596 0-9.337-2.34-18.525-6.806-26.724l-10.24-18.688c-57.088-104.96 57.664-219.776 162.624-162.56l18.688 10.176c8.2 4.466 17.388 6.806 26.724 6.806 24.777 0 46.595-16.318 53.596-40.086l6.016-20.416c33.728-114.56 196.16-114.56 229.888 0l6.016 20.416c7.001 23.768 28.818 40.086 53.596 40.086 9.337 0 18.525-2.34 26.724-6.806l18.688-10.24c104.96-57.152 219.776 57.728 162.56 162.624l-10.176 18.688c-4.466 8.2-6.806 17.388-6.806 26.724 0 24.777 16.318 46.595 40.086 53.596l20.416 6.016c114.56 33.728 114.56 196.16 0 229.888l-20.416 6.016c-23.768 7.001-40.086 28.818-40.086 53.596 0 9.337 2.34 18.525 6.806 26.724l10.24 18.688c57.152 104.96-57.728 219.712-162.624 162.56l-18.688-10.176c-8.2-4.466-17.388-6.806-26.724-6.806-24.777 0-46.595 16.318-53.596 40.086zM452.416 835.52l6.016 20.416c15.744 53.44 91.392 53.44 107.136 0l6.016-20.416c15.027-50.982 61.831-85.98 114.981-85.98 20.045 0 39.77 5.027 57.371 14.62l18.624 10.24c48.896 26.56 102.4-26.88 75.776-75.84l-10.176-18.688c-9.569-17.583-14.582-37.282-14.582-57.299 0-53.16 35.011-99.97 86.006-114.989l20.352-6.016c53.44-15.744 53.44-91.392 0-107.136l-20.416-6.016c-50.982-15.027-85.98-61.831-85.98-114.981 0-20.045 5.027-39.77 14.62-57.371l10.24-18.624c26.56-48.896-26.88-102.4-75.84-75.776l-18.624 10.176c-17.596 9.588-37.316 14.612-57.355 14.612-53.171 0-99.989-35.026-114.997-86.036l-6.016-20.352c-15.744-53.44-91.392-53.44-107.136 0l-6.016 20.416c-15.037 50.967-61.834 85.95-114.972 85.95-20.024 0-39.729-5.016-57.316-14.59l-18.688-10.24c-48.896-26.56-102.4 26.88-75.776 75.84l10.176 18.624c9.613 17.614 14.651 37.359 14.651 57.426 0 53.162-35.014 99.973-86.011 114.99l-20.416 6.016c-53.44 15.744-53.44 91.392 0 107.136l20.416 6.016c50.951 15.047 85.92 61.836 85.92 114.963 0 20.003-5.006 39.688-14.56 57.261l-10.24 18.688c-26.56 48.896 26.88 102.4 75.84 75.776l18.688-10.176c17.587-9.574 37.292-14.59 57.316-14.59 53.139 0 99.935 34.984 114.972 85.95zM512 655.744c-114.734 0-207.744-93.010-207.744-207.744s93.010-207.744 207.744-207.744c114.734 0 207.744 93.010 207.744 207.744s-93.010 207.744-207.744 207.744zM512 304.256c-79.388 0-143.744 64.356-143.744 143.744s64.356 143.744 143.744 143.744c79.388 0 143.744-64.356 143.744-143.744s-64.356-143.744-143.744-143.744z" />
            <glyph unicode="&#xe907;" glyph-name="iconPlugFill" d="M951.429 722.286c20.19 0 37.333-7.048 51.429-21.143 14.095-14.476 21.143-31.714 21.143-51.714s-7.048-37.238-21.143-51.714l-229.143-228.571 85.714-85.714-91.429-91.429c-62.095-62.095-136.286-97.619-222.571-106.571s-164.667 10.19-235.143 57.429l-206.857-206.857h-103.429v103.429l206.857 206.857c-47.238 70.476-66.381 148.857-57.429 235.143s44.476 160.476 106.571 222.571l91.429 91.429 85.714-85.714 228.571 229.143c14.476 14.095 31.81 21.143 52 21.143s37.333-7.048 51.429-21.143c14.095-14.095 21.143-31.333 21.143-51.714s-7.048-37.619-21.143-51.714l-228.571-229.143 133.714-133.714 229.143 228.571c14.476 14.095 31.81 21.143 52 21.143z" />
            <glyph unicode="&#xe908;" glyph-name="iconPlugOutline" d="M670.286 472.571l229.143 228.571c14.476 14.095 31.81 21.143 52 21.143s37.333-7.048 51.429-21.143c14.095-14.476 21.143-31.714 21.143-51.714s-7.048-37.238-21.143-51.714l-229.143-228.571 85.714-85.714-91.429-91.429c-62.095-62.095-136.286-97.619-222.571-106.571s-164.667 10.19-235.143 57.429l-206.857-206.857h-103.429v103.429l206.857 206.857c-47.238 70.476-66.381 148.857-57.429 235.143s44.476 160.476 106.571 222.571l91.429 91.429 85.714-85.714 228.571 229.143c14.476 14.095 31.81 21.143 52 21.143s37.333-7.048 51.429-21.143c14.095-14.095 21.143-31.333 21.143-51.714s-7.048-37.619-21.143-51.714l-228.571-229.143 133.714-133.714zM390.531 619.102l-52.245-52.245c-35.483-35.483-55.782-77.878-60.898-127.184s5.823-94.095 32.816-134.367l59.102-59.102c40.272-26.993 85.061-37.932 134.367-32.816s91.701 25.415 127.184 60.898l52.245 52.245-292.571 292.571z" />
            <glyph unicode="&#xe909;" horiz-adv-x="1369" d="M670.457 94.76c0-43.84 35.54-79.38 79.38-79.38s79.38 35.54 79.38 79.38c0 43.84-35.54 79.38-79.38 79.38s-79.38-35.54-79.38-79.38z" />
            <glyph unicode="&#xe90a;" glyph-name="trashFill" d="M160 896c-35.346 0-64-28.654-64-64v0-64c0-35.346 28.654-64 64-64v0h32v-576c0-70.692 57.308-128 128-128v0h384c70.692 0 128 57.308 128 128v0 576h32c35.346 0 64 28.654 64 64v0 64c0 35.346-28.654 64-64 64v0h-224c0 35.346-28.654 64-64 64v0h-128c-35.346 0-64-28.654-64-64v0h-224zM352 640c17.673 0 32-14.327 32-32v0-448c0-17.673-14.327-32-32-32s-32 14.327-32 32v0 448c0 17.673 14.327 32 32 32v0zM512 640c17.673 0 32-14.327 32-32v0-448c0-17.673-14.327-32-32-32s-32 14.327-32 32v0 448c0 17.673 14.327 32 32 32v0zM704 608v-448c0-17.673-14.327-32-32-32s-32 14.327-32 32v0 448c0 17.673 14.327 32 32 32s32-14.327 32-32v0z" />
            <glyph unicode="&#xe90b;" glyph-name="iconMenuClose" horiz-adv-x="1365" d="M1365.333 823.467v102.4c0 19.115-15.019 34.133-34.133 34.133h-955.733c-19.115 0-34.133-15.019-34.133-34.133v-102.4c0-19.115 15.019-34.133 34.133-34.133h955.733c19.115 0 34.133 15.019 34.133 34.133zM1365.333 379.733v102.4c0 19.115-15.019 34.133-34.133 34.133h-1297.067c-19.115 0-34.133-15.019-34.133-34.133v-102.4c0-19.115 15.019-34.133 34.133-34.133h1297.067c19.115 0 34.133 15.019 34.133 34.133zM1365.333-29.867v102.4c0 19.115-15.019 34.133-34.133 34.133h-955.733c-19.115 0-34.133-15.019-34.133-34.133v-102.4c0-19.115 15.019-34.133 34.133-34.133h955.733c19.115 0 34.133 15.019 34.133 34.133z" />
            <glyph unicode="&#xe90c;" glyph-name="iconMenuOpen" horiz-adv-x="1365" d="M0 823.467v102.4c0 19.115 15.019 34.133 34.133 34.133h955.733c19.115 0 34.133-15.019 34.133-34.133v-102.4c0-19.115-15.019-34.133-34.133-34.133h-955.733c-19.115 0-34.133 15.019-34.133 34.133zM0 379.733v102.4c0 19.115 15.019 34.133 34.133 34.133h1297.067c19.115 0 34.133-15.019 34.133-34.133v-102.4c0-19.115-15.019-34.133-34.133-34.133h-1297.067c-19.115 0-34.133 15.019-34.133 34.133zM0-29.867v102.4c0 19.115 15.019 34.133 34.133 34.133h955.733c19.115 0 34.133-15.019 34.133-34.133v-102.4c0-19.115-15.019-34.133-34.133-34.133h-955.733c-19.115 0-34.133 15.019-34.133 34.133z" />
            <glyph unicode="&#xe90d;" glyph-name="iconUserProfile" d="M716.8 563.2c0-106.039-85.961-192-192-192s-192 85.961-192 192c0 106.039 85.961 192 192 192s192-85.961 192-192zM512-64c-282.77 0-512 229.23-512 512s229.23 512 512 512c178.773 0 336.146-91.624 427.722-230.474 53.272-80.773 84.278-177.528 84.278-281.526 0-282.77-229.23-512-512-512zM959.976 448c0 247.414-200.562 447.987-447.976 448-247.414-0.013-447.976-200.586-447.976-448 0-101.647 34.567-200.273 98.024-279.68 45.44 73.216 145.472 151.68 349.952 151.68s304.448-78.4 349.952-151.68c63.457 79.407 98.024 178.033 98.024 279.68z" />
            <glyph unicode="&#xe90e;" glyph-name="iconStaffing" d="M406.691 441.961c-29.091 29.221-43.636 64.481-43.636 105.779s14.545 76.558 43.636 105.779c29.091 29.221 64.194 43.831 105.309 43.831s76.218-14.61 105.309-43.831c29.091-29.221 43.636-64.481 43.636-105.779s-14.545-76.558-43.636-105.779c-29.091-29.221-64.194-43.831-105.309-43.831s-76.218 14.61-105.309 43.831zM727.273 394.429c9.051-8.701 17.067-19.221 24.048-31.558s12.541-25 16.679-37.987c4.137-12.987 7.564-27.078 10.279-42.273s4.525-29.351 5.43-42.468c0.905-13.117 1.358-26.558 1.358-40.325 0-31.169-9.438-55.779-28.315-73.831s-43.96-27.078-75.248-27.078h-339.006c-31.289 0-56.372 9.026-75.248 27.078s-28.315 42.662-28.315 73.831c0 13.766 0.453 27.208 1.358 40.325s2.715 27.273 5.43 42.468c2.715 15.195 6.141 29.286 10.279 42.273s9.697 25.649 16.679 37.987c6.982 12.338 14.998 22.857 24.048 31.558s20.105 15.649 33.164 20.844c13.059 5.195 27.475 7.792 43.248 7.792 2.586 0 8.145-2.792 16.679-8.377s17.972-11.818 28.315-18.701c10.343-6.883 24.178-13.117 41.503-18.701s34.78-8.377 52.364-8.377c17.584 0 35.038 2.792 52.364 8.377s31.16 11.818 41.503 18.701c10.343 6.883 19.782 13.117 28.315 18.701s14.093 8.377 16.679 8.377c15.774 0 30.19-2.597 43.248-7.792s24.113-12.143 33.164-20.844zM0-30.4c1.6-17.673 15.927-32 33.6-33.6h254.4c17.673 1.6 32 15.927 32 33.6s-14.327 32-32 32h-222.4v222.4c0 17.673-14.327 32-32 32s-32-14.327-33.6-32v-254.4zM1024-30.4c-1.6-17.673-15.927-32-33.6-33.6h-254.4c-17.673 1.6-32 15.927-32 33.6s14.327 32 32 32h222.4v222.4c0 17.673 14.327 32 32 32s32-14.327 33.6-32v-254.4zM1024 926.4c-1.6 17.673-15.927 32-33.6 33.6h-254.4c-17.673-1.6-32-15.927-32-33.6s14.327-32 32-32h222.4v-222.4c0-17.673 14.327-32 32-32s32 14.327 33.6 32v254.4zM0 926.4c1.6 17.673 15.927 32 33.6 33.6h254.4c17.673-1.6 32-15.927 32-33.6s-14.327-32-32-32h-222.4v-222.4c0-17.673-14.327-32-32-32s-32 14.327-33.6 32v254.4zM204.606 589.429c9.697-5.455 22.303-10.974 37.818-16.558s30.901-8.377 46.158-8.377c17.325 0 34.521 2.987 51.588 8.961-1.293-9.61-1.939-18.182-1.939-25.714 0-36.104 10.473-69.351 31.418-99.74-41.891-1.299-76.154-17.922-102.788-49.87h-51.976c-21.204 0-39.046 5.26-53.527 15.779s-21.721 25.909-21.721 46.169c0 91.688 16.032 137.532 48.097 137.532 1.552 0 7.176-2.727 16.873-8.182zM218.376 626.831c-19.394 19.481-29.091 42.987-29.091 70.519s9.697 51.039 29.091 70.519c19.394 19.481 42.796 29.221 70.206 29.221s50.812-9.74 70.206-29.221c19.394-19.481 29.091-42.987 29.091-70.519s-9.697-51.039-29.091-70.519c-19.394-19.481-42.796-29.221-70.206-29.221s-50.812 9.74-70.206 29.221zM683.83 573.455c17.067-5.974 34.263-8.961 51.588-8.961 15.257 0 30.642 2.792 46.158 8.377s28.121 11.104 37.818 16.558c9.697 5.455 15.321 8.182 16.873 8.182 32.065 0 48.097-45.844 48.097-137.532 0-20.26-7.24-35.649-21.721-46.169s-32.323-15.779-53.527-15.779h-51.976c-26.634 31.948-60.897 48.571-102.788 49.87 20.945 30.39 31.418 63.636 31.418 99.74 0 7.532-0.646 16.104-1.939 25.714zM665.212 626.831c-19.394 19.481-29.091 42.987-29.091 70.519s9.697 51.039 29.091 70.519c19.394 19.481 42.796 29.221 70.206 29.221s50.812-9.74 70.206-29.221c19.394-19.481 29.091-42.987 29.091-70.519s-9.697-51.039-29.091-70.519c-19.394-19.481-42.796-29.221-70.206-29.221s-50.812 9.74-70.206 29.221zM493.382 408.304h35.804c5.729 0 11.457 4.11 11.457 10.274v10.274c0 6.165 4.297 10.959 10.741 13.699 46.545 16.439 77.337 59.591 75.189 107.537-2.148 56.851-50.842 103.427-110.277 105.482-31.508 0.685-60.867-10.274-83.782-30.823-19.334-18.494-31.508-41.782-34.372-67.81-0.716-6.165 4.297-10.959 10.741-10.959h35.804c5.729 0 10.025 3.425 10.741 7.534 1.432 11.644 7.161 21.918 16.47 30.138 11.457 10.274 26.495 15.754 42.249 15.069 42.965-1.37 75.905-50.686 40.101-91.783-6.445-6.849-14.322-11.644-22.915-14.384-28.643-9.589-47.978-35.617-47.978-64.385v-10.274c0-5.48 4.297-9.589 10.025-9.589zM465.455 308.364c0-26.065 20.48-46.545 46.545-46.545s46.545 20.48 46.545 46.545c0 26.065-20.48 46.545-46.545 46.545s-46.545-20.48-46.545-46.545z" />
            <glyph unicode="&#xe90f;" glyph-name="iconVehicle" horiz-adv-x="1474" d="M681.761-30.414c-21.013 21.016-34.010 50.047-34.010 82.113 0 64.138 51.994 116.132 116.132 116.132s116.132-51.994 116.132-116.132c0-64.138-51.994-116.132-116.132-116.132-0.003 0-0.007 0-0.010 0h0.001c-0.093 0-0.202 0-0.312 0-31.97 0-60.903 13.006-81.796 34.014l-0.005 0.005zM694.195 51.699c0-38.482 31.197-69.679 69.679-69.679s69.679 31.197 69.679 69.679c0 38.482-31.197 69.679-69.679 69.679v0c-38.465-0.044-69.636-31.215-69.679-69.675v-0.004zM25.12 8.885h-27.716v269.527l189.156 140.969h243.103v124.517l15.972 13.758 14.895-13.758v-124.517h400.486l55.999-46.112v-106.841h78.498v669.509l34.584 23.629 31.929-23.629v-871.696h372.862l31.743-25.17-31.743-30.194h-439.382v174.492h-78.49v-174.477h-34.065c5.32 13.524 8.404 29.187 8.404 45.57 0 70.552-57.194 127.746-127.746 127.746s-127.746-57.194-127.746-127.746c0-16.383 3.084-32.045 8.703-46.439l-0.298 0.869h-469.337c-6.932-35.080-37.452-61.168-74.065-61.168-0.292 0-0.586 0.002-0.877 0.005h0.044c-0.248-0.003-0.542-0.005-0.835-0.005-36.614 0-67.136 26.087-73.992 60.688l-0.080 0.48zM524.581 571.94v0c-10.949 10.081-23.845 18.251-38.032 23.864l-0.834 0.291c-13.521 5.424-29.196 8.571-45.606 8.571-30.822 0-59.053-11.1-80.912-29.521l0.19 0.155-44.131 41.506c16.275 14.559 35.372 26.378 56.314 34.501l1.265 0.432c19.952 7.833 43.056 12.373 67.22 12.373 25.073 0 49.005-4.888 70.894-13.764l-1.265 0.454c22.83-9.146 42.395-21.815 59.036-37.547l-0.088 0.082-44.053-41.405zM607.166 649.578c-21.489 20.584-46.955 37.222-75.101 48.623l-1.593 0.571c-26.772 10.979-57.845 17.351-90.406 17.351-31.659 0-61.912-6.024-89.674-16.99l1.655 0.576c-29.112-11.37-54.113-27.143-75.515-46.775l0.175 0.159-44.053 41.436c26.84 25.051 58.528 45.324 93.445 59.215l2.023 0.71c33.182 13.367 71.657 21.121 111.944 21.121 41.188 0 80.483-8.106 116.377-22.808l-2.049 0.742c37.571-15.211 69.723-36.359 96.909-62.616l-0.087 0.083-44.038-41.39zM689.744 727.186c-64.009 62.113-151.435 100.406-247.805 100.406-0.661 0-1.321-0.002-1.982-0.005h0.102c-0.277 0.001-0.605 0.001-0.933 0.001-47.498 0-92.852-9.171-134.392-25.839l2.431 0.861c-43.793-17.484-81.319-41.784-113.194-71.989l0.159 0.149-44.030 41.436c37.328 35.652 81.541 64.471 130.393 84.219l2.772 0.99c46.115 18.735 99.612 29.607 155.648 29.607 0.405 0 0.811-0.001 1.215-0.002h-0.063c0.668 0.004 1.457 0.006 2.248 0.006 113.419 0 216.284-45.19 291.571-118.548l-0.090 0.088-44.030-41.382z" />
            <glyph unicode="&#xe910;" glyph-name="iconMachine" horiz-adv-x="939" d="M348.722 950.889l27.333 9.111h533l20.5-9.111 9.111-20.5v-533l-9.111-27.333-275.611-275.611-27.333-9.111h-236.889l68.333 72.889h150.333l-11.056 2.278v458.167h-448v-298.722l-85.333-68.333v396.333l4.556 18.222 280.167 284.722zM829.333 882.556l-441.889 4.556-173.111-183.111h437.333l177.667 178.556zM234.667 334.039v220.627h18.885v-109.176h34.973v109.176h34.973v-109.176h34.973v109.176h34.973v-109.176h34.973v109.176h34.973v-109.176h33.995l0.977 109.176h34.973v-270.667l-209.836-218.353v-129.647h-34.973v109.176h-174.863v-109.176h-34.973v109.176h-67.76l-10.929 11.373v50.039l234.667 227.451zM480.874 331.765l-209.836 4.549-205.464-218.353h209.836l205.464 213.804z" />
            <glyph unicode="&#xe911;" glyph-name="iconDockTruck" horiz-adv-x="1047" d="M861.091 200.467c0-17.501-14.084-31.739-31.395-31.739 0 0-612.126 0-612.126 0-17.307 0-31.388 14.238-31.388 31.739 0 0 0 634.71 0 634.71 0 17.497 14.081 31.732 31.388 31.732 0 0 612.126 0 612.126 0 17.311 0 31.395-14.235 31.395-31.732 0 0 0-634.71 0-634.71zM791.273 797.091h-535.273v-558.545h535.273v558.545zM861.091-34.855c0-16.070-14.258-29.145-31.784-29.145 0 0-87.42 0-87.42 0-17.526 0-31.784 13.074-31.784 29.145 0 0 0 110.492 0 110.492h-349.66c0 0 0-110.492 0-110.492 0-16.070-14.258-29.145-31.784-29.145 0 0-87.42 0-87.42 0-17.526 0-31.784 13.074-31.784 29.145 0 0 0 93.797 0 93.797v86.513h651.636v-29.138c0 0 0-151.172 0-151.172zM606.797 130.886h-150.995v-57.375h150.995v57.375zM907.636 202.562v653.786l139.636 103.652v-861.091l-139.636 103.652zM139.636 202.562v653.786l-139.636 103.652v-861.091l139.636 103.652zM302.545 308.364v209.455h209.455v-209.455h-209.455zM558.545 308.364v209.455h209.455v-209.455h-209.455zM418.909 541.091v209.455h209.455v-209.455h-209.455z" />
            <glyph unicode="&#xe912;" glyph-name="iconNotification" horiz-adv-x="928" d="M464-64c68.483 0 124 55.517 124 124h-248c0-68.483 55.517-124 124-124zM526 866.054c0-2.068-0.103-4.135-0.31-6.192 144.476-29.387 248.291-156.427 248.31-303.862 0-54.56 19.84-260.4 75.64-372 13.826-27.714 29.822-49.662 48.36-56h-868c18.538 6.338 34.534 28.286 48.36 56 55.8 111.6 75.64 317.44 75.64 372 0 150.040 106.64 275.28 248.31 303.862-0.207 2.058-0.31 4.124-0.31 6.192 0 34.242 27.758 62 62 62s62-27.758 62-62z" />
            <glyph unicode="&#xe913;" glyph-name="iconFullScreen" d="M288 1.6h-222.4v222.4c0 17.673-14.327 32-32 32s-32-14.327-32-32v-254.4c0-17.673 14.327-32 32-32h254.4c17.673 0 32 14.327 32 32s-14.327 32-32 32zM736 1.6h222.4v222.4c0 17.673 14.327 32 32 32s32-14.327 32-32v-254.4c0-17.673-14.327-32-32-32h-254.4c-17.673 0-32 14.327-32 32s14.327 32 32 32zM736 894.4h222.4v-222.4c0-17.673 14.327-32 32-32s32 14.327 32 32v254.4c0 17.673-14.327 32-32 32h-254.4c-17.673 0-32-14.327-32-32s14.327-32 32-32zM288 894.4h-222.4v-222.4c0-17.673-14.327-32-32-32s-32 14.327-32 32v254.4c0 17.673 14.327 32 32 32h254.4c17.673 0 32-14.327 32-32s-14.327-32-32-32z" />
            <glyph unicode="&#xe914;" glyph-name="iconFullScreenExit" d="M32 190.4h222.4v-222.4c0-17.673 14.327-32 32-32s32 14.327 32 32v254.4c0 17.673-14.327 32-32 32h-254.4c-17.673 0-32-14.327-32-32s14.327-32 32-32zM992 190.4h-222.4v-222.4c0-17.673-14.327-32-32-32s-32 14.327-32 32v254.4c0 17.673 14.327 32 32 32h254.4c17.673 0 32-14.327 32-32s-14.327-32-32-32zM992 705.6h-222.4v222.4c0 17.673-14.327 32-32 32s-32-14.327-32-32v-254.4c0-17.673 14.327-32 32-32h254.4c17.673 0 32 14.327 32 32s-14.327 32-32 32zM32 705.6h222.4v222.4c0 17.673 14.327 32 32 32s32-14.327 32-32v-254.4c0-17.673-14.327-32-32-32h-254.4c-17.673 0-32 14.327-32 32s14.327 32 32 32z" />
            <glyph unicode="&#xe915;" glyph-name="iconLegend" horiz-adv-x="1260" d="M571.077 881.231h630.154c32.627 0 59.077-26.45 59.077-59.077s-26.45-59.077-59.077-59.077h-630.154c-32.627 0-59.077 26.45-59.077 59.077s26.45 59.077 59.077 59.077zM571.077 487.385h630.154c32.627 0 59.077-26.45 59.077-59.077s-26.45-59.077-59.077-59.077h-630.154c-32.627 0-59.077 26.45-59.077 59.077s26.45 59.077 59.077 59.077zM571.077 132.923h630.154c32.627 0 59.077-26.45 59.077-59.077s-26.45-59.077-59.077-59.077h-630.154c-32.627 0-59.077 26.45-59.077 59.077s26.45 59.077 59.077 59.077zM0 428.308c0 77.194 60.652 137.846 137.846 137.846s137.846-60.652 137.846-137.846c0-77.194-60.652-137.846-137.846-137.846s-137.846 60.652-137.846 137.846zM0-64l157.538 236.308 157.538-236.308h-315.077zM0 684.308v275.692h275.692v-275.692h-275.692z" />
            <glyph unicode="&#xe916;" glyph-name="pencilFill" d="M822.656 950.656c-5.791 5.789-13.789 9.369-22.624 9.369s-16.833-3.58-22.624-9.369l-105.408-105.408 237.248-237.248 105.408 105.344c5.808 5.794 9.401 13.805 9.401 22.656s-3.593 16.862-9.401 22.655l-192.001 192.001zM864 562.752l-237.248 237.248-416-416h13.248c17.673 0 32-14.327 32-32v0-32h32c17.673 0 32-14.327 32-32v0-32h32c17.673 0 32-14.327 32-32v0-32h32c17.673 0 32-14.327 32-32v0-13.248l416 416zM386.048 84.8c-1.289 3.325-2.040 7.174-2.048 11.196v32.004h-32c-17.673 0-32 14.327-32 32v0 32h-32c-17.673 0-32 14.327-32 32v0 32h-32c-17.673 0-32 14.327-32 32v0 32h-32c-4.026 0.007-7.874 0.758-11.418 2.122l0.218-0.074-11.456-11.392c-2.97-2.99-5.354-6.565-6.963-10.538l-0.077-0.214-128-320c-1.45-3.521-2.292-7.608-2.292-11.892 0-17.673 14.327-32 32-32 4.284 0 8.371 0.842 12.105 2.369l-0.214-0.077 320 128c4.187 1.686 7.762 4.070 10.754 7.042l11.39 11.39z" />
            <glyph unicode="&#xe917;" glyph-name="iconViewport" horiz-adv-x="1052" d="M568.889 760.889v199.111h199.111v-199.111h-199.111zM0 760.889v199.111h199.111v-199.111h-199.111zM284.444 760.889v199.111h199.111v-199.111h-199.111zM853.333 760.889v199.111h199.111v-199.111h-199.111zM832-20.267h148.267v148.267c0 11.782 9.551 21.333 21.333 21.333s21.333-9.551 21.333-21.333v-169.6c0-11.782-9.551-21.333-21.333-21.333h-169.6c-11.782 0-21.333 9.551-21.333 21.333s9.551 21.333 21.333 21.333zM220.444 574.933h-148.267v-148.267c0-11.782-9.551-21.333-21.333-21.333s-21.333 9.551-21.333 21.333v169.6c0 11.782 9.551 21.333 21.333 21.333h169.6c11.782 0 21.333-9.551 21.333-21.333s-9.551-21.333-21.333-21.333zM839.427 266.792c3.477 7.027 3.477 14.055 0 21.082-54.466 111.268-168.033 188.57-298.983 188.57s-244.517-77.302-298.983-188.57c-3.477-7.027-3.477-15.226 0-21.082 54.466-111.268 168.033-188.57 298.983-188.57s244.517 77.302 298.983 188.57zM667.918 277.333c0-71.446-56.784-128.837-127.473-128.837s-127.473 57.391-127.473 128.837c0 71.446 56.784 128.837 127.473 128.837s127.473-57.391 127.473-128.837zM621.564 277.333c0 45.678-35.924 81.987-81.119 81.987s-81.119-36.308-81.119-81.987c0-45.678 35.924-81.987 81.119-81.987s81.119 36.308 81.119 81.987z" />
            <glyph unicode="&#xe918;" glyph-name="iconViewportAdd" horiz-adv-x="1083" d="M1082.514 960v-204.8h-204.8v204.8h204.8zM789.943 960v-204.8h-204.8v204.8h204.8zM497.371 960v-204.8h-204.8v204.8h204.8zM204.8 960v-204.8h-204.8v204.8h204.8zM885.029-62.903c-12.119 0-21.943 9.824-21.943 21.943s9.824 21.943 21.943 21.943h152.503v152.503c0 12.119 9.824 21.943 21.943 21.943s21.943-9.824 21.943-21.943v-174.446c0-12.119-9.824-21.943-21.943-21.943h-174.446zM256 637.074c12.119 0 21.943-9.824 21.943-21.943s-9.824-21.943-21.943-21.943h-152.503v-152.503c0-12.119-9.824-21.943-21.943-21.943s-21.943 9.824-21.943 21.943v174.446c0 12.119 9.824 21.943 21.943 21.943h174.446zM351.086 316.343h175.543v175.543c0 16.158 13.099 29.257 29.257 29.257s29.257-13.099 29.257-29.257v-175.543h175.543c16.158 0 29.257-13.099 29.257-29.257s-13.099-29.257-29.257-29.257h-175.543v-175.543c0-16.158-13.099-29.257-29.257-29.257s-29.257 13.099-29.257 29.257v175.543h-175.543c-16.158 0-29.257 13.099-29.257 29.257s13.099 29.257 29.257 29.257z" />
            <glyph unicode="&#xe919;" glyph-name="iconViewportSetting" horiz-adv-x="1083" d="M877.714 755.2v204.8h204.8v-204.8h-204.8zM585.143 755.2v204.8h204.8v-204.8h-204.8zM292.571 755.2v204.8h204.8v-204.8h-204.8zM0 755.2v204.8h204.8v-204.8h-204.8zM628.138 300.678c0 40.411-31.547 72.533-71.235 72.533s-71.235-32.122-71.235-72.533c0-40.411 31.547-72.533 71.235-72.533s71.235 32.122 71.235 72.533zM777.731 194.987c9.159 11.398 5.088 30.050-7.123 40.411l-37.653 32.122c2.035 11.398 3.053 23.832 3.053 35.23s-1.018 23.832-3.053 35.23l37.653 32.122c12.212 10.362 16.282 29.013 8.141 43.52l-16.282 29.013c-6.106 10.362-17.3 16.579-29.512 16.579-4.071 0-8.141-1.036-11.194-2.072l-46.811-17.615c-18.318 16.579-38.67 27.977-60.041 35.23l-8.141 48.701c-3.053 16.579-17.3 25.905-33.582 25.905h-32.564c-16.282 0-30.529-9.326-33.582-25.905l-8.141-47.665c-22.388-7.253-42.741-19.688-61.058-35.23l-46.811 17.615c-4.071 1.036-7.123 2.072-11.194 2.072-12.212 0-23.406-6.217-29.512-16.579l-16.282-29.013c-8.141-14.507-5.088-33.158 8.141-43.52l37.653-32.122c-2.035-11.398-3.053-23.832-3.053-35.23 0-12.434 1.018-23.832 3.053-35.23l-37.653-32.122c-12.212-10.362-16.282-29.013-8.141-43.52l16.282-29.013c6.106-10.362 17.3-16.579 29.512-16.579 4.071 0 8.141 1.036 11.194 2.072l46.811 17.615c18.318-16.579 38.67-27.977 60.041-35.23l8.141-49.737c3.053-16.579 16.282-27.977 33.582-27.977h32.564c16.282 0 30.529 12.434 33.582 29.013l8.141 49.737c23.406 8.29 44.776 20.724 63.094 38.339l43.759-17.615c4.071-1.036 8.141-2.072 12.212-2.072 12.212 0 23.406 6.217 29.512 16.579l15.265 26.941zM668.844 300.678c0-63.208-49.864-113.981-111.94-113.981s-111.94 50.773-111.94 113.981c0 63.208 49.864 113.981 111.94 113.981s111.94-50.773 111.94-113.981zM885.029-19.017h152.503v152.503c0 12.119 9.824 21.943 21.943 21.943s21.943-9.824 21.943-21.943v-174.446c0-12.119-9.824-21.943-21.943-21.943h-174.446c-12.119 0-21.943 9.824-21.943 21.943s9.824 21.943 21.943 21.943zM256 593.189h-152.503v-152.503c0-12.119-9.824-21.943-21.943-21.943s-21.943 9.824-21.943 21.943v174.446c0 12.119 9.824 21.943 21.943 21.943h174.446c12.119 0 21.943-9.824 21.943-21.943s-9.824-21.943-21.943-21.943z" />
            <glyph unicode="&#xe91a;" glyph-name="iconZoomAll" d="M372.992 263.744c12.492 12.496 12.492 32.752 0 45.248-12.496 12.492-32.752 12.492-45.248 0l-262.144-262.144v177.152c0 17.673-14.327 32-32 32s-32-14.327-32-32v-254.4c0-17.673 14.327-32 32-32h254.4c17.673 0 32 14.327 32 32s-14.327 32-32 32h-177.152l262.144 262.144zM651.008 263.744c-12.492 12.496-12.492 32.752 0 45.248 12.496 12.492 32.752 12.492 45.248 0l262.144-262.144v177.152c0 17.673 14.327 32 32 32s32-14.327 32-32v-254.4c0-17.673-14.327-32-32-32h-254.4c-17.673 0-32 14.327-32 32s14.327 32 32 32h177.152l-262.144 262.144zM651.008 632.256c-12.492-12.496-12.492-32.752 0-45.248 12.496-12.492 32.752-12.492 45.248 0l262.144 262.144v-177.152c0-17.673 14.327-32 32-32s32 14.327 32 32v254.4c0 17.673-14.327 32-32 32h-254.4c-17.673 0-32-14.327-32-32s14.327-32 32-32h177.152l-262.144-262.144zM372.992 632.256c12.492-12.496 12.492-32.752 0-45.248-12.496-12.492-32.752-12.492-45.248 0l-262.144 262.144v-177.152c0-17.673-14.327-32-32-32s-32 14.327-32 32v254.4c0 17.673 14.327 32 32 32h254.4c17.673 0 32-14.327 32-32s-14.327-32-32-32h-177.152l262.144-262.144z" />
            <glyph unicode="&#xe91b;" glyph-name="iconExit" d="M20.002 775.202c-26.65 26.658-26.65 69.871 0 96.529 26.658 26.65 69.871 26.65 96.529 0l361.335-361.335 361.335 361.335c12.864 13.319 30.586 20.841 49.103 20.841 37.703 0 68.267-30.564 68.267-68.267 0-18.517-7.522-36.239-20.841-49.103l-361.335-361.335 361.335-361.335c12.293-12.728 19.163-29.731 19.163-47.426 0-37.703-30.564-68.267-68.267-68.267-17.695 0-34.698 6.871-47.426 19.163l-361.335 361.335-361.335-361.335c-12.728-12.293-29.731-19.163-47.426-19.163-37.703 0-68.267 30.564-68.267 68.267 0 17.695 6.871 34.698 19.163 47.426l361.335 361.335-361.335 361.335z" />
            <glyph unicode="&#xe91c;" glyph-name="iconActiveZone" d="M1024 448c0-286.72-225.28-512-512-512s-512 225.28-512 512c0 286.72 225.28 512 512 512s512-225.28 512-512zM293.081 416.758c-0.592-2.006-0.892-4.086-0.892-6.177 0-12.097 9.854-21.904 21.993-21.904h146.078l-141.232-287.436c-0.652-2.099-0.984-4.284-0.984-6.481 0-12.097 9.841-21.904 21.98-21.904 6.801 0 13.218 3.137 17.381 8.496l369.778 425.298c3.001 3.845 4.631 8.577 4.631 13.449 0 12.097-9.856 21.904-21.995 21.904h-167.31l140.309 234.020c0.746 2.232 1.126 4.569 1.126 6.922 0 12.091-9.831 21.895-21.963 21.904h-175.838c-9.757 0.006-18.349-6.399-21.101-15.727l-171.96-372.364z" />
            <glyph unicode="&#xe91d;" glyph-name="iconInactiveZone" d="M207.742 862.227l161.711-280.092-76.372-165.377c-0.592-2.006-0.892-4.086-0.892-6.177 0-12.097 9.854-21.904 21.993-21.904h146.078l-141.232-287.436c-0.652-2.099-0.984-4.284-0.984-6.481 0-12.097 9.841-21.904 21.98-21.904 6.801 0 13.218 3.137 17.381 8.496l180.987 208.172 179.896-311.589c-62.837-27.027-132.53-41.936-206.288-41.936-286.72 0-512 225.28-512 512 0 171.955 81.028 321.811 207.742 414.227zM465.041 789.122l-31.89-69.071-116.867 202.42c60.048 24.237 126.070 37.53 195.717 37.53 286.72 0 512-225.28 512-512 0-167.773-77.135-314.509-198.579-407.383l-200.896 347.963 102.657 118.070c3.001 3.845 4.631 8.577 4.631 13.449 0 12.097-9.856 21.904-21.995 21.904h-167.31l140.309 234.020c0.746 2.232 1.126 4.569 1.126 6.922 0 12.091-9.831 21.895-21.963 21.904h-175.838c-9.757 0.006-18.349-6.399-21.101-15.727z" />
            <glyph unicode="&#xe91e;" glyph-name="iconActive" d="M0 448c0 286.72 225.28 512 512 512s512-225.28 512-512c0-286.72-225.28-512-512-512s-512 225.28-512 512zM896 448c0 215.040-168.96 384-384 384s-384-168.96-384-384c0-215.040 168.96-384 384-384s384 168.96 384 384zM640 448c0-71.68-56.32-128-128-128s-128 56.32-128 128c0 71.68 56.32 128 128 128s128-56.32 128-128z" />
            <glyph unicode="&#xe91f;" glyph-name="iconInactive" d="M825.882 224.278c31.671 44.783 53.897 96.918 63.994 153.722l129.378-0.001c-12.474-91.236-48.983-174.819-102.937-244.157l-90.436 90.436zM588.287 71.294c48.416 9.426 93.325 27.7 133.035 53.129l91.080-91.080c-64.887-47.090-141.258-79.321-224.116-91.699v129.65zM728.594 766.801c-41.468 27.922-88.911 47.898-140.307 57.904v129.618c85.993-12.861 164.802-46.992 231.048-96.782l-90.741-90.741zM887.428 530.572c-10.376 48.98-29.847 94.249-56.627 134.021l90.73 90.731c48.69-64.801 82.318-141.473 95.835-224.753l-129.939 0.001zM435.714-58.355c-85.827 12.821-164.693 46.944-231.045 96.817l90.738 90.738c41.468-27.922 88.912-47.898 140.308-57.905v-129.65zM193.2 231.405l-90.738-90.737c-51.088 67.969-85.649 149.068-97.716 237.33h129.379c9.567-53.815 30.019-103.44 59.076-146.593zM136.572 530.572l-129.949-0.001c13.042 80.436 44.823 154.587 90.72 217.831l91.080-91.080c-24.325-37.986-42.102-80.73-51.851-126.75zM288.278 761.881l-90.436 90.436c67.743 52.712 149.082 88.774 237.871 102.038v-129.65c-54.366-10.585-104.309-32.325-147.436-62.824z" />
            <glyph unicode="&#xe920;" glyph-name="iconWarningDashboard" d="M896 448c0 209.681-160.644 375.55-368.011 383.687l5.329 127.869c274.24-11.428 490.682-237.078 490.682-511.556 0-282.77-229.23-512-512-512s-512 229.23-512 512c0 282.77 229.23 512 512 512 7.061 0 14.121-0.146 21.176-0.438l-5.293-127.871c-5.265 0.205-10.56 0.309-15.883 0.309-215.040 0-384-168.96-384-384s168.96-384 384-384c215.040 0 384 168.96 384 384zM737.477 290.462c24.615 0 39.385 30.076 24.615 51.692l-225.477 347.748c-11.815 18.797-37.415 18.797-49.231 0l-225.477-347.748c-13.785-21.617 0-51.692 24.615-51.692h450.954zM541.538 393.846c0-15.978-12.8-28.196-29.538-28.196s-29.538 12.218-29.538 28.196c0 15.978 12.8 28.196 29.538 28.196s29.538-12.218 29.538-28.196zM541.538 572.42v-122.182c0-5.639-3.938-9.399-9.846-9.399h-39.385c-5.908 0-9.846 3.759-9.846 9.399v122.182c0 5.639 3.938 9.399 9.846 9.399h39.385c5.908 0 9.846-3.759 9.846-9.399z" />
            <glyph unicode="&#xe921;" glyph-name="iconCriticalDashboard" d="M768 448c0 140.8-115.2 256-256 256s-256-115.2-256-256c0-140.8 115.2-256 256-256s256 115.2 256 256zM638.933 466.133c1.067-12.8 1.067-24.533 0-36.267-1.067-7.467-7.467-13.867-16-13.867h-221.867c-8.533 0-14.933 5.333-16 13.867-1.067 12.8-1.067 24.533 0 36.267 1.067 7.467 7.467 13.867 16 13.867h221.867c8.533 0 14.933-6.4 16-13.867zM1024 448c0-286.72-225.28-512-512-512s-512 225.28-512 512c0 286.72 225.28 512 512 512s512-225.28 512-512zM128 448c0-215.040 168.96-384 384-384s384 168.96 384 384c0 215.040-168.96 384-384 384s-384-168.96-384-384z" />
            <glyph unicode="&#xe922;" glyph-name="iconNormalDashboard" d="M533.176 959.562l-21.176-511.562 21.318 511.556c274.24-11.428 490.682-237.078 490.682-511.556 0-282.77-229.23-512-512-512s-512 229.23-512 512c0 282.77 229.23 512 512 512 7.061 0 14.121-0.146 21.176-0.438zM486.759 277.102l267.984 282.498c5.682 5.927 5.682 15.804 0 21.731l-20.833 21.731c-5.682 5.927-15.151 5.927-20.833 0l-230.106-242c-3.788-3.951-10.416-3.951-14.204 0l-117.42 123.469c-5.682 5.927-15.151 5.927-20.833 0l-20.833-21.731c-5.682-5.927-5.682-15.804 0-21.731l156.245-163.967c5.682-6.914 15.151-6.914 20.833 0z" />
            <glyph unicode="&#xe923;" glyph-name="iconThumbsUpOutline" horiz-adv-x="783" d="M429.176 893.079l-15.721 3.915c-57.585 14.396-111.074-29.154-114.929-85.534-4.337-63.307-13.854-121.434-25.781-156.009-7.529-21.685-28.853-61.018-62.645-98.726-33.551-37.527-77.222-70.957-128.361-84.932-40.478-11.023-81.739-46.080-81.739-97.28v-241.001c0-50.899 41.080-88.184 87.221-93.064 64.452-6.867 94.208-24.998 124.567-43.55l2.891-1.807c16.384-9.939 34.816-20.962 58.428-29.154 23.913-8.192 51.863-13.071 88.305-13.071h210.824c56.44 0 96.316 28.732 116.495 64.090 9.753 16.685 15.023 35.61 15.3 54.935 0 9.156-1.385 18.793-4.638 27.949 12.107 15.842 22.889 34.816 29.395 54.272 6.626 19.878 10.36 45.899 0.241 69.21 4.156 7.831 7.228 16.203 9.577 24.275 4.638 16.264 6.807 34.214 6.807 51.622 0 17.348-2.168 35.238-6.807 51.561-2.107 7.504-4.889 14.803-8.312 21.805 21.404 30.452 26.661 69.411 14.095 104.448-12.408 35.659-41.080 66.259-72.282 76.619-51.019 16.986-108.604 16.625-151.552 12.71-8.916-0.802-17.813-1.806-26.684-3.012 20.896 89.486 19.614 182.723-3.735 271.601-8.272 28.998-31.6 51.242-60.958 58.127zM572.235 13.101v-0.060h-210.824c-30.72 0-51.983 4.156-68.668 9.879-16.926 5.843-30.479 13.734-46.743 23.672l-2.409 1.446c-33.431 20.42-72.162 44.032-149.986 52.284-20.058 2.168-33.37 17.468-33.37 33.129v241.062c0 15.3 13.613 32.708 37.346 39.153 65.958 18.071 119.085 59.994 157.455 102.882 38.249 42.767 64.090 88.847 74.571 119.145 14.637 42.165 24.516 106.496 29.033 171.671 1.506 21.805 21.685 35.78 40.177 31.202l15.782-3.976c9.638-2.409 15.541-8.614 17.348-15.36 24.599-93.727 21.566-192.569-8.734-284.612-1.033-3.084-1.56-6.315-1.56-9.568 0-16.634 13.484-30.118 30.118-30.118 2.455 0 4.9 0.3 7.282 0.894l0.181 0.060 0.843 0.181 3.494 0.843c20.598 4.374 41.435 7.532 62.404 9.457 39.936 3.614 87.763 3.253 127.096-9.879 10.541-3.494 27.106-18.071 34.334-39.153 6.445-18.552 5.24-40.358-16.023-61.56l-21.263-21.263 21.263-21.323c2.59-2.59 6.325-8.493 9.276-18.974 2.891-10.059 4.518-22.287 4.518-34.997 0-12.77-1.626-24.937-4.518-35.057-3.012-10.481-6.686-16.384-9.276-18.974l-21.263-21.263 21.263-21.323c2.831-2.831 6.566-10.662 0.301-29.395-6.528-18.166-16.904-34.707-30.419-48.489l-21.263-21.263 21.263-21.323c0.361-0.301 2.47-3.012 2.47-10.24-0.267-8.835-2.775-17.458-7.288-25.058-9.939-17.348-30.298-33.732-64.211-33.732z" />
            <glyph unicode="&#xe924;" glyph-name="iconThumbDownOutline" horiz-adv-x="832" d="M456-38.976l-16.704-4.16c-61.184-15.36-117.952 30.976-122.112 90.88-4.608 67.2-14.72 128.96-27.392 165.76-8 23.040-30.656 64.768-66.56 104.832-35.648 39.936-82.048 75.456-136.384 90.24-43.008 11.776-86.848 49.024-86.848 103.424v256c0 54.080 43.648 93.696 92.672 98.944 68.48 7.232 100.096 26.56 132.352 46.272l3.072 1.856c17.408 10.624 36.992 22.336 62.080 30.976 25.408 8.832 55.104 13.952 93.824 13.952h224c59.968 0 102.336-30.592 123.776-68.096 10.496-18.368 16.256-38.848 16.256-58.432 0-9.728-1.472-19.968-4.928-29.696 12.864-16.768 24.32-36.928 31.232-57.6 7.040-21.12 11.008-48.768 0.256-73.6 4.416-8.32 7.68-17.152 10.176-25.792 4.928-17.28 7.232-36.288 7.232-54.784s-2.304-37.504-7.232-54.784c-2.24-7.68-5.12-15.616-8.832-23.232 25.216-36.544 26.752-76.8 14.976-110.912-13.184-37.888-43.648-70.4-76.8-81.408-54.208-18.112-115.392-17.664-161.024-13.504-9.474 0.853-18.927 1.92-28.352 3.2 22.215-95.099 20.853-194.187-3.968-288.64-8.832-32.512-35.2-54.272-64.768-61.696zM676.224 860.096c-10.624 18.496-32.192 35.904-68.224 35.904h-224c-32.64 0-55.232-4.352-72.96-10.432-17.984-6.208-32.384-14.656-49.664-25.152l-2.56-1.6c-35.52-21.632-76.672-46.72-159.36-55.552-21.312-2.24-35.456-18.56-35.456-35.2v-256.064c0-16.32 14.464-34.752 39.68-41.6 70.080-19.2 126.528-63.808 167.296-109.376 40.64-45.44 68.096-94.4 79.232-126.528 15.552-44.8 26.048-113.152 30.848-182.4 1.6-23.168 23.040-38.080 42.688-33.152l16.768 4.16c10.24 2.56 16.512 9.216 18.432 16.32 26.149 99.606 22.926 204.649-9.28 302.464-1.082 3.256-1.634 6.665-1.634 10.096 0 17.673 14.327 32 32 32 2.6 0 5.191-0.317 7.714-0.944h0.192l0.896-0.256 3.712-0.832c21.885-4.647 44.025-8.002 66.304-10.048 42.432-3.84 93.248-3.456 135.040 10.432 11.2 3.776 28.8 19.264 36.48 41.664 6.848 19.712 5.568 42.88-17.024 65.344l-22.592 22.656 22.592 22.656c2.752 2.688 6.72 8.96 9.856 20.16 3.072 10.688 4.8 23.68 4.8 37.184s-1.728 26.496-4.8 37.184c-3.2 11.136-7.104 17.472-9.856 20.16l-22.592 22.656 22.592 22.656c3.008 3.008 6.976 11.264 0.32 31.232-6.944 19.278-17.968 36.83-32.32 51.456l-22.592 22.656 22.592 22.656c0.384 0.32 2.624 3.2 2.624 10.88-0.295 9.366-2.959 18.504-7.744 26.56z" />
            <glyph unicode="&#xe925;" glyph-name="iconThumbUpFill" horiz-adv-x="832" d="M642.909-43.52v-0.073h-264.727c-38.575 0-65.274 5.047-86.225 11.995-21.254 7.095-38.272 16.677-58.694 28.745l-3.025 1.755c-41.978 24.795-90.612 53.467-188.335 63.488-25.187 2.633-41.903 21.211-41.903 40.229v292.718c0 18.578 17.094 39.717 46.895 47.543 82.822 21.943 149.533 72.85 197.713 124.928 48.029 51.931 80.477 107.886 93.638 144.677 18.38 51.2 30.784 129.317 36.457 208.457 1.891 26.478 27.229 43.447 50.449 37.888l19.817-4.827c12.102-2.926 19.514-10.459 21.783-18.651 30.889-113.812 27.080-233.834-10.967-345.6-1.297-3.745-1.959-7.668-1.959-11.618 0-20.198 16.932-36.571 37.818-36.571 3.082 0 6.153 0.364 9.144 1.085l0.227 0.073 1.059 0.219 4.387 1.024c25.864 5.311 52.029 9.146 78.359 11.483 50.147 4.389 110.202 3.95 159.593-11.995 13.236-4.242 34.036-21.943 43.113-47.543 8.093-22.528 6.58-49.006-20.119-74.752l-26.7-25.819 26.7-25.893c3.252-3.145 7.942-10.313 11.648-23.040 3.631-12.215 5.673-27.063 5.673-42.496 0-15.506-2.042-30.281-5.673-42.569-3.782-12.727-8.396-19.895-11.648-23.040l-26.7-25.819 26.7-25.893c3.555-3.438 8.244-12.946 0.378-35.694-8.197-22.059-21.226-42.144-38.196-58.88l-26.7-25.819 26.7-25.893c0.454-0.366 3.101-3.657 3.101-12.434-0.336-10.729-3.485-21.199-9.152-30.427-12.48-21.065-38.045-40.96-80.628-40.96z" />
            <glyph unicode="&#xe926;" glyph-name="iconThumbDownFill" horiz-adv-x="832" d="M642.909 939.52v0.073h-264.727c-38.575 0-65.274-5.047-86.225-11.995-21.254-7.095-38.272-16.677-58.694-28.745l-3.025-1.755c-41.978-24.795-90.612-53.467-188.335-63.488-25.187-2.633-41.903-21.211-41.903-40.229v-292.718c0-18.578 17.094-39.717 46.895-47.543 82.822-21.943 149.533-72.85 197.713-124.928 48.029-51.931 80.477-107.886 93.638-144.677 18.38-51.2 30.784-129.317 36.457-208.457 1.891-26.478 27.229-43.447 50.449-37.888l19.817 4.827c12.102 2.926 19.514 10.459 21.783 18.651 30.889 113.812 27.080 233.834-10.967 345.6-1.297 3.745-1.959 7.668-1.959 11.618 0 20.198 16.932 36.571 37.818 36.571 3.082 0 6.153-0.364 9.144-1.085l0.227-0.073 1.059-0.219 4.387-1.024c25.864-5.311 52.029-9.146 78.359-11.483 50.147-4.389 110.202-3.95 159.593 11.995 13.236 4.242 34.036 21.943 43.113 47.543 8.093 22.528 6.58 49.006-20.119 74.752l-26.7 25.819 26.7 25.893c3.252 3.145 7.942 10.313 11.648 23.040 3.631 12.215 5.673 27.063 5.673 42.496 0 15.506-2.042 30.281-5.673 42.569-3.782 12.727-8.396 19.895-11.648 23.040l-26.7 25.819 26.7 25.893c3.555 3.438 8.244 12.946 0.378 35.694-8.197 22.059-21.226 42.144-38.196 58.88l-26.7 25.819 26.7 25.893c0.454 0.366 3.101 3.657 3.101 12.434-0.336 10.729-3.485 21.199-9.152 30.427-12.48 21.065-38.045 40.96-80.628 40.96z" />
            <glyph unicode="&#xe927;" glyph-name="iconLayer" horiz-adv-x="1092" d="M18.091 641.699l512 279.273c10.029 5.461 22.057 5.461 32.085 0l512-279.273c11.11-6.071 18.048-17.907 18.048-30.79s-6.938-24.719-18.048-30.79l-512-279.273c-10.029-5.461-22.057-5.461-32.085 0l-512 279.273c-11.11 6.071-18.048 17.907-18.048 30.79s6.938 24.719 18.048 30.79zM498.005 204.946l-352.939 201.582-126.976-72.558c-11.11-6.36-18.048-18.76-18.048-32.256s6.938-25.896 18.048-32.256l512-292.571c10.029-5.721 22.057-5.721 32.085 0l512 292.571c11.11 6.36 18.048 18.76 18.048 32.256s-6.938 25.896-18.048 32.256l-126.976 72.558-352.939-201.582c-30.086-17.164-66.17-17.164-96.256 0z" />
            <glyph unicode="&#xe928;" glyph-name="iconCaretDownOutline" horiz-adv-x="1489" d="M744.727 130.432l-595.285 701.568h1190.571l-595.285-701.568zM25.214 832c0-31.034 10.933-61.010 30.764-84.352l595.285-701.44c23.57-27.815 57.644-43.773 93.463-43.773s69.893 15.958 93.463 43.773l595.285 701.44c70.253 82.816 13.157 212.352-93.463 212.352h-1190.571c-0.035 0-0.071 0-0.106 0-68.55 0-124.121-57.308-124.121-128z" />
            <glyph unicode="&#xe929;" glyph-name="iconCaretUpFill" horiz-adv-x="1489" d="M651.264 849.792v0.128l-595.285-701.696c-70.253-82.56-13.157-212.224 93.463-212.224h1190.571c0.035 0 0.071 0 0.106 0 68.55 0 124.121 57.308 124.121 128 0 31.034-10.933 61.010-30.764 84.352l-595.285 701.44c-23.57 27.815-57.644 43.773-93.463 43.773s-69.893-15.958-93.463-43.773z" />
            <glyph unicode="&#xe92a;" glyph-name="iconCaretUpOutline" horiz-adv-x="1489" d="M744.727 765.568l-595.285-701.568h1190.571l-595.285 701.568zM25.214 64c0 31.034 10.933 61.010 30.764 84.352l595.285 701.44c23.57 27.815 57.644 43.773 93.463 43.773s69.893-15.958 93.463-43.773l595.285-701.44c70.253-82.816 13.157-212.352-93.463-212.352h-1190.571c-0.035 0-0.071 0-0.106 0-68.55 0-124.121 57.308-124.121 128z" />
            <glyph unicode="&#xe92b;" glyph-name="iconTag2" horiz-adv-x="1089" d="M25.828 960l25.851-2.871 117.808-45.96 45.96-20.132 10.051-10.051 192.467-555.846h466.797l1.439 7.18 22.98 70.379h-415.118l-11.49 2.871-12.929 10.051q-10.916 9.194-5.749 34.47l10.051 12.929 22.98 8.619h435.197l28.729 91.92h-509.879c-10.237 1.768-18.863 7.567-24.336 15.67l-0.083 0.13-5.749 20.132 2.871 11.49 10.051 12.929 22.98 8.619h527.155l25.851 78.999-636.284 1.439-21.556 12.907-8.619 20.132c1.084 12.806 8.204 23.746 18.472 30.064l0.169 0.097 5.749 2.871h698.044l18.641-15.8q6.606-9.194 2.871-28.729l-143.629-448.119-18.641-24.419-17.239-5.749h-511.295l-14.361 2.893-24.419-58.904-8.619-33.039h564.436l18.641-12.929 5.749-14.361-8.619-21.541-10.051-5.749h-44.529l22.98-41.65c2.866-9.638 4.515-20.712 4.515-32.171 0-6.902-0.598-13.664-1.746-20.237l0.101 0.7c-5.009-22.478-16.731-41.679-32.923-55.919l-0.116-0.1c-13.101-12.632-29.686-21.736-48.172-25.731l-0.659-0.119h-40.219c-25.159 5.792-46.454 19.605-61.591 38.553l-0.169 0.219-14.361 22.98-5.749 17.239-2.871 28.729 5.749 28.729 22.98 37.341-232.679 1.439 25.851-53.14v-40.219c-5.535-22.308-17.144-41.376-32.96-55.947l-0.078-0.071-40.219-22.98c-8.994-2.935-19.343-4.627-30.088-4.627-32.853 0-62.010 15.82-80.27 40.259l-0.188 0.263q-23.271 24.128-22.98 71.818l5.749 25.851 22.98 37.341-38.772 1.439-12.929 10.051q-7.754 6.606-5.749 22.98l51.701 143.637 12.929 18.641 7.18 4.31-180.977 527.155-139.297 51.709-24.419 15.8q-10.342 8.329-5.749 31.599l12.929 15.8zM412.195 89.598l-25.851-8.619c-10.029-6.547-17.292-16.615-20.069-28.413l-0.063-0.316q-5.749-25.851 5.749-40.219c7.304-10.466 18.428-17.833 31.31-20.090l0.289-0.042c2.969-0.59 6.383-0.928 9.875-0.928 11.359 0 21.884 3.574 30.511 9.659l-0.167-0.112 17.239 25.851q2.871 25.851-5.749 37.341c-9.145 14.779-24.833 24.755-42.919 25.88l-0.155 0.008zM800 89.598c-2.962-2.506-6.825-4.029-11.043-4.029-2.229 0-4.358 0.425-6.312 1.199l0.116-0.041-14.361-8.619-17.239-25.851q-5.749-25.851 5.749-40.219c7.998-9.677 18.811-16.769 31.178-20.037l0.421-0.095c2.969-0.59 6.383-0.928 9.875-0.928 11.359 0 21.884 3.574 30.511 9.659l-0.167-0.112 17.239 25.851v22.98l-11.49 25.851-11.49 8.619z" />
            <glyph unicode="&#xe92c;" glyph-name="iconForklift" horiz-adv-x="1351" d="M684.828 960h-413.233l-52.667-44.564v-409.182h-141.796l-28.359-28.359-8.103-16.205s-5.672-153.844-7.535-242.438c45.788 58.209 166.104 79.835 238.46 16.205s57.731-131.092 60.972-191.051h206.414c-2.909 94.801 7.090 159.014 81.026 210.668s146.033 32.532 226.873-8.103c2.013 5.927 3.45 12.815 4.031 19.945l0.020 0.311-8.103 36.462h76.975l4.051-4.051v-243.078l401.079-12.154 26.066 29.834-26.066 26.884-344.361 8.103v733.286l-14.123 36.462-42.595-20.257v-469.951l-12.154-12.154h-81.026l-4.051 28.359-24.308 97.231-64.821 405.131zM664.571 878.974l81.026-494.259-8.103-16.205h-267.386l-16.205 113.437-48.616 24.308h-113.437v372.72zM725.341-64c87.257 0.005 157.991 70.743 157.991 158.001 0 43.628-17.683 83.127-46.273 111.719v0c-28.691 29.208-68.604 47.309-112.746 47.309-87.262 0-158.001-70.739-158.001-158.001 0-44.141 18.101-84.055 47.286-112.723l0.023-0.023c28.436-28.589 67.803-46.283 111.302-46.283 0.147 0 0.293 0 0.44 0.001h-0.023zM725.341 179.775c47.372 0 85.774-38.402 85.774-85.774s-38.402-85.774-85.774-85.774c-47.372 0-85.774 38.402-85.774 85.774v0c0.064 47.346 38.428 85.71 85.768 85.774h0.006zM158.158-64c87.257 0.005 157.991 70.743 157.991 158.001 0 43.628-17.683 83.127-46.273 111.719v0c-28.691 29.208-68.604 47.309-112.746 47.309-87.262 0-158.001-70.739-158.001-158.001 0-44.141 18.101-84.055 47.286-112.723l0.023-0.023c28.436-28.589 67.803-46.283 111.302-46.283 0.147 0 0.293 0 0.44 0.001h-0.023zM158.158 179.775c47.372 0 85.774-38.402 85.774-85.774s-38.402-85.774-85.774-85.774c-47.372 0-85.774 38.402-85.774 85.774v0c0.064 47.346 38.428 85.71 85.768 85.774h0.006z" />
            <glyph unicode="&#xe92d;" horiz-adv-x="1369" d="M39.197 449.072l-15.876 3.969-15.876-23.814-7.938-317.519 15.876-63.504 15.011-19.845h540.648s-8.962 75.339 0 123.039 13.352 56.701 13.352 56.701l-219.739 2.834-325.457 182.574z" />
            <glyph unicode="&#xe92e;" horiz-adv-x="1977" d="M1211.985 792.524l-39.476-14.805 98.685-236.845s-7.398-1.043-9.866-14.586c-0.63-5.95-0.989-12.855-0.989-19.843s0.359-13.893 1.061-20.695l-0.071 0.852h143.088l152.966-19.744s32.235 51.811-28.203 69.075-213.581 0-213.581 0c-0.438 45.112-9.359 88.018-25.236 127.369l0.836-2.345c-22.808 50.195-49.275 93.44-80.269 132.965l1.057-1.399z" />
            <glyph unicode="&#xe92f;" horiz-adv-x="1821" d="M711.346 659.386c-38.731 10.378-71.13 25.484-89.758 44.815-5.961 4.769-9.747 12.044-9.747 20.202 0 1.654 0.156 3.272 0.453 4.839l-0.025-0.161c1.86 12.297 3.166 18.312 16.818 24.307s23.743 8.3 45.774-2.364 31.756-28.828 85.524-42.668 129.488-12.732 129.488-12.732 17.748-12.267-7.143-22.655-92.449-18.866-92.449-18.866c-7.254-0.804-15.665-1.262-24.183-1.262-19.433 0-38.309 2.386-56.351 6.882l1.599-0.337z" />
            <glyph unicode="&#xe930;" horiz-adv-x="1881" d="M1187.433 706.601l-3.932-42.812 19.454-19.454 58.373-7.786v-151.784h-7.786v-260.756h-264.649v217.943h-159.57l-7.786-7.786h-692.761l-11.679-11.679v-155.677l15.572-15.572 7.786-81.732h221.886c6.223 15.572 29.934 154.467 196.966 157.701s193.475-142.131 193.475-142.131h138.857l15.572-15.572h334.742c14.735 3.175 27.737 7.773 39.916 13.784l-0.997-0.444c18.393 66.454 29.491 89.223 104.548 134.551s172.036 12.288 217.522-23.594c31.005 12.779 55.445 23.594 55.445 23.594v38.919l54.452 7.795v120.651l-11.679 11.679-46.696 23.377-85.625 16.359-31.133 30.337-256.863 108.972z" />
            <glyph unicode="&#xe931;" glyph-name="iconCaretDownFill" horiz-adv-x="1489" d="M651.264 46.208v-0.128l-595.285 701.696c-70.253 82.56-13.157 212.224 93.463 212.224h1190.571c0.035 0 0.071 0 0.106 0 68.55 0 124.121-57.308 124.121-128 0-31.034-10.933-61.010-30.764-84.352l-595.285-701.44c-23.57-27.815-57.644-43.773-93.463-43.773s-69.893 15.958-93.463 43.773z" />
            <glyph unicode="&#xe932;" horiz-adv-x="1881" d="M1108.021 832l-153.641-158.479 26.238-25.294 64.007 62.984 114.653-109.257 47.648-93.834v-19.454h54.452v140.096l-66.159 7.786-15.572-7.786-111.517 106.986 64.882 73.021z" />
            <glyph unicode="&#xe933;" horiz-adv-x="1881" d="M732.080 784.439q-35.804 9.339-46.705-11.679l-7.786-31.133 7.786-7.786 7.786-245.195h-548.762l-19.454-19.454-7.786-31.133 11.679 3.932h692.761l7.786 7.786h167.347v-15.572h31.133q-5.446 33.425 23.347 42.812l-11.679 11.679h-105.079c7.786 28.018 19.209 50.912-33.601 50.598-47.186 17.647-137.628 101.186-137.628 101.186l-7.786 54.491-15.572 15.572zM768.060 600.136l88.555-64.784h-70.052l-7.786 23.347z" />
            <glyph unicode="&#xe934;" horiz-adv-x="1881" d="M1703.224 355.629l-37.080-7.088v-38.919h97.292v19.474l-7.786 11.659h-45.072z" />
            <glyph unicode="&#xe935;" horiz-adv-x="1950" d="M1357.328 956.249q48.462 15.306 31.906-31.906 34.432-14.030 25.507-57.387-52.291 16.582-38.261-25.507l414.472-140.282h51.015l70.141-70.141 25.507-38.261v-382.592l12.754-25.507q-33.156-17.859-25.507-76.522l-31.906-31.906h-395.337l-51.015-38.261h-854.391l-43.607 15.892h-327.007l-50.264-15.892h-115.421l-55.913 38.261v31.906h635.699v548.372l-20.558 44.633v140.325c5.95 13.176 35.019 20.514 50.48 0 12.21-16.194 10.805-60.241 28.612-65.346 35.614-10.218 31.233-22.42 31.233-22.42l-31.233-10.96v-589.979h388.904v503.748l31.906 6.373 70.141 12.754 6.373 25.507h280.572l25.507-12.754 95.648 31.906-350.704 121.173h-133.935v63.768h133.935z" />
            <glyph unicode="&#xe936;" horiz-adv-x="863" d="M624.678 460.5s65.511-4.15 84.017-19.251l10.959-21.917 65.751-43.835 29.223-7.305 28.836-33.125 11.346-131.255-7.305-29.223c8.742-4.59 14.762-13.326 15.454-23.524l0.005-0.088c0.001-0.064 0.001-0.141 0.001-0.217 0-11.214-6.175-20.985-15.309-26.101l-0.151-0.078h-204.102l-11.419 9.884h-70.048v262.949l3.653 3.653h59.090z" />
            <glyph unicode="&#xe937;" horiz-adv-x="1224" d="M631.276 956.249q48.462 15.306 31.906-31.906 34.432-14.030 25.507-57.387-52.291 16.582-38.261-25.507l414.472-140.282h51.015l70.141-70.141 25.507-38.261v-382.592l12.754-25.507q-33.156-17.859-25.507-76.522l-31.906-31.906h-395.337l-51.015-38.261h-414.481l-19.126 51.015-89.276 12.754-44.633-31.906-6.373-31.906h-133.909v784.406l-12.754 12.754q17.859 39.537 82.894 31.906l31.906-44.633v-669.536h242.311v503.687l31.906 6.373 70.141 12.754 6.373 25.507h280.572l25.507-12.754 95.648 31.906-350.73 121.173h-133.935v63.768h133.935z" />
            <glyph unicode="&#xe938;" horiz-adv-x="1528" d="M1519.508 447.789l7.992-15.984z" />
            <glyph unicode="&#xe939;" horiz-adv-x="1528" d="M579.927-11.458l7.992-15.984z" />
            <glyph unicode="&#xe93a;" horiz-adv-x="1528" d="M1056.745 960h116.273l4.007-24.056h-116.273z" />
            <glyph unicode="&#xe93b;" horiz-adv-x="1528" d="M1036.662 927.929h156.416l4.007-20.049 7.992-20.049h-172.423z" />
            <glyph unicode="&#xe93c;" horiz-adv-x="1528" d="M1288.994 895.847l52.12-4.007-184.445-216.516v-212.509q30.473 12.034 24.056-12.034l7.992-44.105q48.911-14.431 64.153 12.034l40.097 80.195c-14.431 9.134 16.372 45.783 40.097 10.276s-4.007-46.308-4.007-46.308l-20.049 12.034-48.089-96.259 72.168-80.195-20.049-20.049-44.105 44.105-52.12 60.146h-192.46l-4.007 24.022h40.097v20.049l7.992 36.090 24.056 4.007v376.906l4.007 4.007h60.146l4.007-128.307z" />
            <glyph unicode="&#xe93d;" horiz-adv-x="1528" d="M384.51 678.189c38.293 4.807 48.146 2.135 63.354-7.992v-288.696h468.792l4.224-316.76 418.11-4.007 12.673-12.034-12.673-20.049-46.457-20.049c5.397-7.827 8.62-17.515 8.62-27.955 0-1.449-0.062-2.883-0.184-4.3l0.013 0.184c-5.489-23.335-26.13-40.439-50.767-40.439-0.536 0-1.070 0.008-1.602 0.024l0.078-0.002c-32.048 1.77-45.84 9.054-57.52 27.744s0 48.763 0 48.763l-122.473 15.984-8.449-24.056h-549.043l-29.559 7.992v48.135h-42.244c-0.97-32.859-1.404-41.171-21.122-48.112h-388.54s-30.039 6.782-29.742 28.121 25.518 28.006 25.518 28.006h325.231l12.673 12.034v577.415zM1248.703 4.572c-21.693-1.050-23.976-13.050-23.736-24.056s6.439-20.288 24.57-19.969 17.674 19.969 17.674 19.969 3.151 25.118-18.519 24.068z" />
            <glyph unicode="&#xe93e;" horiz-adv-x="1528" d="M1256.912 951.985l204.494-7.992-4.007-40.097h-212.52q-9.625 36.866 12.034 48.089z" />
            <glyph unicode="&#xe93f;" horiz-adv-x="1528" d="M1015.38 879.805h204.494l4.007-24.056h-204.494z" />
            <glyph unicode="&#xe940;" horiz-adv-x="1528" d="M929.465 381.478h78.174l8.232-7.992h194.732l89.157-96.224 24.684-12.034 24.684-32.071v-104.251l-8.232-7.992-12.342-52.12h-90.516l-8.232 7.992h-148.104l-8.232-7.992h-144.006z" />
            <glyph unicode="&#xe941;" horiz-adv-x="1528" d="M524.428-3.443h220.935c-18.701-39.96-50.83-56.584-118.454-56.584-66.323 0-91.258 28.246-102.481 56.584z" />
            <glyph unicode="&#xe942;" horiz-adv-x="1369" d="M1000.479 314.634v-310.089h332.8l35.721 16.011v19.71l-35.721 11.907-305.612 3.969v238.14z" />
            <glyph unicode="&#xe943;" horiz-adv-x="1369" d="M1015.569 960h-198.45v-37.944h27.783l83.349-34.149v-512.23h-83.349l-134.946 553.968h-678.698v-470.532l15.876-5.834v-50.112l312.344-181.248 238.79-7.216c18.858 25.073 44.601 44.045 74.419 54.217l1.095 0.325c49.009 15.479 71.712 19.258 120.514 7.39s58.4-26.052 87.048-54.717c17.508-18.433 30.916-40.936 38.65-65.932l0.317-1.191v-139.582l7.938-26.886h59.535v349.406l23.814-15.177zM666.298 853.758l103.194-440.137h-103.194l-15.876-22.766c-1.389-19.655-4.208-37.808-8.401-55.429l0.463 2.308-31.752-7.589-142.884 7.589-7.938 22.766v113.831l-31.752 22.766h-150.822l7.938 53.121-23.814 106.242-39.69 7.589v-204.935h-158.76v394.645z" />
            <glyph unicode="&#xe944;" horiz-adv-x="1369" d="M591.078 94.76c0-87.681 71.079-158.76 158.76-158.76s158.76 71.079 158.76 158.76c0 87.681-71.079 158.76-158.76 158.76s-158.76-71.079-158.76-158.76z" />
            <glyph unicode="&#xe945;" horiz-adv-x="1369" d="M150.329-51.021c0.037 0 0.080 0 0.124 0 20.565 0 39.299 7.84 53.376 20.694l-0.062-0.055c14.079 12.822 23.493 30.552 25.525 50.467l0.028 0.336h-157.966c2.059-20.251 11.473-37.981 25.489-50.746l0.063-0.057c14.016-12.799 32.75-20.639 53.315-20.639 0.038 0 0.076 0 0.114 0h-0.006z" />
            <glyph unicode="&#xe946;" horiz-adv-x="1977" d="M1621.531 772.791h-19.733l-64.127-64.147-59.209-78.953 24.64-24.64 49.343 49.343 148.028-128.316 4.938 54.281-118.419 108.551 49.343 69.075z" />
            <glyph unicode="&#xe947;" horiz-adv-x="1977" d="M158.529 144.372h168.010l14.784 8.169c20.461 83.378 94.559 144.266 182.878 144.266 87.761 0 161.482-60.121 182.22-141.422l0.282-1.302 390.698-9.709 14.399 6.512c19.743 84.093 94.115 145.747 182.887 145.747 0.129 0 0.259 0 0.386 0h-0.021c0.018 0 0.038 0 0.060 0 13.368 0 26.415-1.378 39.006-3.997l-1.237 0.216c3.731-0.301 7.626-0.678 11.585-1.126l4.918-3.021c32.501-9.961 60.216-27.446 82.15-50.484l0.074-0.077 16.669-10.241 34.589-73.68h335.979l24.713 24.535 9.877 19.649v304.525l-39.529 127.69-34.589 34.381c-4.443 1.309-9.569 2.136-14.862 2.289l-0.088 0.002c-0.499 0.063-1.077 0.098-1.663 0.098-4.391 0-8.317-1.999-10.913-5.138l-0.020-0.023c-3.396-5.053-2.438-14.035 2.835-26.692h-39.529v-54.032l-9.877-9.824v-191.546h49.405v-147.35h-256.954v152.257l-39.529 83.504-54.365 9.824h-153.153v54.020l-123.555 299.607-54.355-9.824v-54.020l88.944-255.412v-34.381h-1012.991l-14.816-14.742-9.888-98.227 9.877-9.824v-186.64l24.703-24.557z" />
            <glyph unicode="&#xe948;" horiz-adv-x="1977" d="M525.065-64c94.94 0.004 171.901 76.967 171.901 171.907 0 47.469-19.241 90.446-50.348 121.555v0c-31.187 31.596-74.492 51.167-122.368 51.167-94.941 0-171.907-76.965-171.907-171.907 0-47.875 19.571-91.18 51.149-122.351l0.019-0.019c30.938-31.104 73.768-50.353 121.093-50.353 0.161 0 0.325 0 0.486 0.001h-0.025zM525.065 201.226c51.54 0 93.319-41.781 93.319-93.319s-41.781-93.319-93.319-93.319c-51.54 0-93.319 41.781-93.319 93.319v0c0.060 51.514 41.805 93.261 93.314 93.319h0.006z" />
            <glyph unicode="&#xe949;" horiz-adv-x="1977" d="M1296.043-64c94.94 0.004 171.901 76.967 171.901 171.907 0 47.469-19.241 90.446-50.348 121.555v0c-31.187 31.596-74.492 51.167-122.368 51.167-94.941 0-171.907-76.965-171.907-171.907 0-47.875 19.571-91.18 51.149-122.351l0.019-0.019c30.938-31.104 73.768-50.353 121.093-50.353 0.161 0 0.325 0 0.486 0.001h-0.025zM1296.043 201.226c51.54 0 93.319-41.781 93.319-93.319s-41.781-93.319-93.319-93.319c-51.54 0-93.319 41.781-93.319 93.319v0c0.060 51.514 41.805 93.261 93.314 93.319h0.006z" />
            <glyph unicode="&#xe94a;" horiz-adv-x="1950" d="M1357.354 956.249q48.462 15.306 31.906-31.906 34.432-14.030 25.507-57.387-52.291 16.582-38.261-25.507l414.472-140.282v-60.172l-655.601-11.952 127.312-75.634v-321.644l-127.312-63.535c810.241 13.883 806.101 10.684 800.039 3.777-10.167-10.874-14.53-33.173-10.529-63.811l-31.906-31.906h-395.372v51.015h-414.472v529.212l31.906 6.373 70.141 12.754 6.373 25.507h280.572l25.507-12.754 95.648 31.906-350.712 121.155h-133.926v63.785h133.909z" />
            <glyph unicode="&#xe94b;" horiz-adv-x="1950" d="M928.274 38.029c0-56.344-45.676-102.021-102.021-102.021s-102.021 45.676-102.021 102.021c0 56.344 45.676 102.021 102.021 102.021s102.021-45.676 102.021-102.021z" />
            <glyph unicode="&#xe94c;" horiz-adv-x="1950" d="M1835.577 12.522c0-42.262-34.26-76.522-76.522-76.522s-76.522 34.26-76.522 76.522c0 42.262 34.26 76.522 76.522 76.522s76.522-34.26 76.522-76.522z" />
            <glyph unicode="&#xe94d;" horiz-adv-x="1950" d="M732.287 746.241l-32.673-12.254 4.527-292.687-4.527-284.883h231.79v271.034s51.937 39.399-5.579 54.688-176.775 0-176.775 0 19.204 12.4 15.013 65.493-31.776 198.609-31.776 198.609z" />
            <glyph unicode="&#xe94e;" horiz-adv-x="863" d="M41.778-22.669h97.065c0.002-0.138 0.003-0.3 0.003-0.463 0-11.653-5.102-22.114-13.192-29.273l-0.041-0.036c-13.698-10.045-13.998-10.432-32.913-11.419-1.289-0.114-2.789-0.179-4.304-0.179-14.606 0-27.799 6.052-37.207 15.785l-0.014 0.015c-5.846 6.227-9.436 14.63-9.436 23.872 0 0.597 0.015 1.191 0.045 1.781l-0.003-0.083z" />
            <glyph unicode="&#xe94f;" horiz-adv-x="863" d="M54.826 959.961h69.405v-40.182l14.612-58.447v-807.291h135.158l3.653 3.653v398.165h254.746l-112.283 94.976-80.364-43.835-30.276 43.835 97.343 59.177-11.762 93.755 61.588 44.325 75.754-138.080-64.795-33.606 127.851-105.934h25.57v-65.751h-62.099l-3.653-3.653v-273.967h69.405l7.305-7.305h215.521l7.305-175.339h-230.133l-7.305 36.529h-613.687l-3.653 3.653v58.447l21.917 51.14v672.132l7.305 7.305 7.305 178.993z" />
            <glyph unicode="&#xe950;" horiz-adv-x="863" d="M791.814 471.437l19.164-11.923-29.223-41.585 21.917-24.167 7.305-18.952-23.188 4.333-64.481 43.842-6.437 19.807h18.996l27.623-8.847z" />
            <glyph unicode="&#xe951;" horiz-adv-x="1224" d="M631.301 956.249q48.462 15.306 31.906-31.906 34.432-14.030 25.507-57.387-52.291 16.582-38.261-25.507l414.472-140.282v-60.172l-655.601-11.952 127.312-75.634v-321.644l-127.312-63.535c810.241 13.883 806.101 10.684 800.039 3.777-10.167-10.874-14.53-33.173-10.529-63.811l-31.906-31.906h-395.372v51.015h-414.472v529.212l31.906 6.373 70.141 12.754 6.373 25.507h280.572l25.507-12.754 95.648 31.906-350.712 121.155h-133.926v63.785h133.909z" />
            <glyph unicode="&#xe952;" horiz-adv-x="1224" d="M331.569 38.029c0-56.344-45.676-102.021-102.021-102.021s-102.021 45.676-102.021 102.021c0 56.344 45.676 102.021 102.021 102.021s102.021-45.676 102.021-102.021z" />
            <glyph unicode="&#xe953;" horiz-adv-x="1224" d="M1109.524 12.522c0-42.262-34.26-76.522-76.522-76.522s-76.522 34.26-76.522 76.522c0 42.262 34.26 76.522 76.522 76.522s76.522-34.26 76.522-76.522z" />
            <glyph unicode="&#xe954;" glyph-name="iconRepairOn" d="M0 448c0 286.72 225.28 512 512 512s512-225.28 512-512c0-286.72-225.28-512-512-512s-512 225.28-512 512zM795.52 261.541l-235.52 246.469c5.12 15.958 10.24 31.917 11.947 49.648 1.707 7.093 1.707 14.185 1.707 21.278-1.707 104.616-81.92 187.955-182.613 187.955-17.067 0-35.84-3.546-52.907-7.093-3.413-5.319-6.827-14.185-3.413-17.732l104.107-108.163c6.827-7.093 6.827-21.278-1.707-28.371l-73.387-76.246c-6.827-7.093-20.48-7.093-27.307 1.773l-102.4 106.39c-6.827 5.319-15.36 3.546-17.067-3.546-6.827-24.824-10.24-51.422-6.827-78.019 11.947-102.843 100.693-177.316 199.68-164.904 17.067 1.773 32.427 5.319 47.787 12.412l235.52-244.696c13.653-14.185 32.427-21.278 51.2-21.278 20.48 0 37.547 7.093 51.2 21.278 27.307 28.371 27.307 74.473 0 102.843z" />
            <glyph unicode="&#xe955;" glyph-name="iconRepairOff" d="M0 448c0 286.72 225.28 512 512 512s512-225.28 512-512c0-286.72-225.28-512-512-512s-512 225.28-512 512zM795.52 261.541l-235.52 246.469c5.12 15.958 10.24 31.917 11.947 49.648 1.707 7.093 1.707 14.185 1.707 21.278-1.707 104.616-81.92 187.955-182.613 187.955-17.067 0-35.84-3.546-52.907-7.093-3.413-5.319-6.827-14.185-3.413-17.732l104.107-108.163c6.827-7.093 6.827-21.278-1.707-28.371l-73.387-76.246c-6.827-7.093-20.48-7.093-27.307 1.773l-102.4 106.39c-6.827 5.319-15.36 3.546-17.067-3.546-6.827-24.824-10.24-51.422-6.827-78.019 11.947-102.843 100.693-177.316 199.68-164.904 17.067 1.773 32.427 5.319 47.787 12.412l235.52-244.696c13.653-14.185 32.427-21.278 51.2-21.278 20.48 0 37.547 7.093 51.2 21.278 27.307 28.371 27.307 74.473 0 102.843z" />
            <glyph unicode="&#xe956;" glyph-name="iconCriticalSquare" d="M768-64h-512c-143.36 0-256 120.145-256 273.071v477.859c0 152.925 112.64 273.071 256 273.071h512c143.36 0 256-120.145 256-273.071v-477.859c0-152.925-112.64-273.071-256-273.071zM571.078 243.2c0 36.922-25.6 65.164-59.078 65.164s-59.078-28.241-59.078-65.164 25.6-65.164 59.078-65.164 59.078 28.241 59.078 65.164zM571.078 655.907c0.071 0.629 0.112 1.357 0.112 2.095 0 10.842-8.789 19.631-19.631 19.631-0.060 0-0.12 0-0.179-0.001h-78.769c-0.051 0-0.11 0.001-0.17 0.001-10.842 0-19.631-8.789-19.631-19.631 0-0.738 0.041-1.467 0.12-2.184l-0.008 0.088v-282.38c-0.071-0.629-0.112-1.357-0.112-2.095 0-10.842 8.789-19.631 19.631-19.631 0.060 0 0.12 0 0.179 0.001h78.758c0.054-0.001 0.118-0.001 0.182-0.001 10.842 0 19.631 8.789 19.631 19.631 0 0.738-0.041 1.467-0.12 2.184l0.008-0.088z" />
            <glyph unicode="&#xe957;" glyph-name="iconWarningSquare" d="M768-64h-512c-143.36 0-256 120.145-256 273.071v477.859c0 152.925 112.64 273.071 256 273.071h512c143.36 0 256-120.145 256-273.071v-477.859c0-152.925-112.64-273.071-256-273.071zM571.078 243.2c0 36.922-25.6 65.164-59.078 65.164s-59.078-28.241-59.078-65.164 25.6-65.164 59.078-65.164 59.078 28.241 59.078 65.164zM571.078 655.907c0.071 0.629 0.112 1.357 0.112 2.095 0 10.842-8.789 19.631-19.631 19.631-0.060 0-0.12 0-0.179-0.001h-78.769c-0.051 0-0.11 0.001-0.17 0.001-10.842 0-19.631-8.789-19.631-19.631 0-0.738 0.041-1.467 0.12-2.184l-0.008 0.088v-282.38c-0.071-0.629-0.112-1.357-0.112-2.095 0-10.842 8.789-19.631 19.631-19.631 0.060 0 0.12 0 0.179 0.001h78.758c0.054-0.001 0.118-0.001 0.182-0.001 10.842 0 19.631 8.789 19.631 19.631 0 0.738-0.041 1.467-0.12 2.184l0.008-0.088z" />
            <glyph unicode="&#xe958;" glyph-name="iconCriticalTriangle" d="M962.954 0c49.231 0 78.769 65.164 49.231 112l-450.954 753.455c-23.631 40.727-74.831 40.727-98.462 0l-450.954-753.455c-27.569-46.836 0-112 49.231-112h901.908zM571.077 224c0-34.618-25.6-61.091-59.077-61.091s-59.077 26.473-59.077 61.091c0 34.618 25.6 61.091 59.077 61.091s59.077-26.473 59.077-61.091zM571.077 610.909v-264.727c0-12.218-7.877-20.364-19.692-20.364h-78.769c-11.815 0-19.692 8.145-19.692 20.364v264.727c0 12.218 7.877 20.364 19.692 20.364h78.769c11.815 0 19.692-8.145 19.692-20.364z" />
            <glyph unicode="&#xe959;" glyph-name="iconWarningTriangle" d="M962.954 0c49.231 0 78.769 65.164 49.231 112l-450.954 753.455c-23.631 40.727-74.831 40.727-98.462 0l-450.954-753.455c-27.569-46.836 0-112 49.231-112h901.908zM571.077 224c0-34.618-25.6-61.091-59.077-61.091s-59.077 26.473-59.077 61.091c0 34.618 25.6 61.091 59.077 61.091s59.077-26.473 59.077-61.091zM571.077 610.909v-264.727c0-12.218-7.877-20.364-19.692-20.364h-78.769c-11.815 0-19.692 8.145-19.692 20.364v264.727c0 12.218 7.877 20.364 19.692 20.364h78.769c11.815 0 19.692-8.145 19.692-20.364z" />
            <glyph unicode="&#xe95a;" glyph-name="iconEdit" d="M536.381 874.667h-435.81c-55.544 0-100.571-45.027-100.571-100.571v-737.524c0-55.544 45.027-100.571 100.571-100.571h737.524c55.544 0 100.571 45.027 100.571 100.571v402.286c0 18.515-15.009 33.524-33.524 33.524s-33.524-15.009-33.524-33.524v-402.286c0-18.515-15.009-33.524-33.524-15.238h-737.524c-18.515-18.286-33.524-3.277-15.238 15.238v737.524c-18.286 18.515-3.277 33.524 15.238 15.238h435.81c0 18.286 0 18.286 0 18.286 18.515 0 33.524 15.009 33.524 33.524s-15.009 33.524-33.524 33.524zM855.246 915.476c13.19 13.453 34.572 13.453 47.762 0l87.349-89.118c13.141-13.449 13.141-35.279 0-48.729l-70.46-71.956-135.111 137.846 70.46 71.956zM398.638 179.033c4.983 1.671 9.517 4.502 13.241 8.271l460.256 469.642-135.111 137.915-460.256-469.642c-3.718-3.793-6.517-8.418-8.174-13.509l-54.382-166.38c-0.569-1.75-0.859-3.582-0.859-5.425 0-9.516 7.561-17.231 16.889-17.231 1.807 0 3.602 0.296 5.318 0.876l163.079 55.483z" />
            <glyph unicode="&#xe95b;" glyph-name="iconSnooze" d="M576 868.73c0-2.074-0.107-4.147-0.32-6.21 85.966-16.988 157.986-66.517 203.578-133.746h-81.39c-35.208 36.148-81.699 62.225-134.86 72.749l-51.008 10.135-51.008-10.073c-119.283-23.612-204.979-125.532-204.992-243.801 0-39.048-8.576-136.606-29.376-232.671-10.24-47.691-24.064-97.371-42.432-124.854h655.616c-18.368 27.483-32.128 77.101-42.432 124.854-5.345 24.687-9.883 49.473-13.675 73.339h64.773c12.256-73.948 32.041-156.293 61.606-213.738 14.272-27.794 30.784-49.805 49.92-56.713h-896c19.136 6.909 35.648 28.92 49.92 56.713 57.6 111.921 78.080 318.353 78.080 373.070 0 150.472 110.080 276.072 256.32 304.736-0.213 2.064-0.32 4.136-0.32 6.21 0 34.34 28.654 62.178 64 62.178s64-27.838 64-62.178zM640 60.357h-256c0-68.68 57.308-124.357 128-124.357s128 55.676 128 124.357zM329.481 319.072l229.69 260.646h-212.022v55.853h299.812v-49.13l-229.69-264.266h235.211v-55.853h-323.002v52.75zM672.038 478.096l133.978 152.035h-123.672v32.579h174.88v-28.657l-133.978-154.147h137.199v-32.579h-188.407v30.769z" />
            <glyph unicode="&#xe95c;" glyph-name="iconSubmit" d="M477.867 70.857c-207.365 0-375.467 168.853-375.467 377.143 0 208.349 168.102 377.202 375.467 377.202 65.908 0 130.655-17.426 187.733-50.528 5.142-2.937 10.956-4.481 16.871-4.481 18.851 0 34.133 15.35 34.133 34.286 0 12.168-6.42 23.424-16.871 29.578-67.456 39.12-143.975 59.714-221.867 59.714-245.067 0-443.733-199.553-443.733-445.714s198.666-445.714 443.733-445.714c245.045 0 443.702 199.518 443.733 445.657 0 18.935-15.282 34.286-34.133 34.286s-34.133-15.35-34.133-34.286c0-208.29-168.102-377.143-375.467-377.143zM502.033 286.583l477.867 480c6.409 6.438 10.010 15.17 10.010 24.274 0 18.959-15.301 34.329-34.176 34.329-9.064 0-17.757-3.617-24.166-10.055l-453.7-455.794-180.634 181.509c-6.409 6.438-15.102 10.055-24.166 10.055-18.875 0-34.176-15.37-34.176-34.329 0-9.105 3.601-17.836 10.010-24.274l204.8-205.714c6.404-6.449 15.099-10.073 24.166-10.073s17.763 3.624 24.166 10.073z" />
            <glyph unicode="&#xe95d;" horiz-adv-x="3503" d="M2909.521 956.249q48.463 15.306 31.906-31.906 34.433-14.030 25.508-57.388-52.291 16.582-38.261-25.508l414.476-140.283h51.015l70.141-70.141 25.508-38.261v-382.595l12.754-25.508q-33.156-17.859-25.508-76.523l-31.906-31.906h-395.341l-51.015-38.261h-854.398l-43.608 15.893h-1879.192l-50.265-15.893h-115.422l-55.913 38.261v31.906h2187.886v548.377l-20.558 44.634v140.326c5.95 13.176 35.019 20.515 50.48 0 12.21-16.194 10.805-60.242 28.612-65.347 35.614-10.219 31.233-22.42 31.233-22.42l-31.233-10.96v-589.984h388.908v503.752l31.906 6.373 70.141 12.754 6.373 25.508h280.574l25.508-12.754 95.649 31.906-350.707 121.174h-133.936v63.769h133.936z" />
            <glyph unicode="&#xe95e;" horiz-adv-x="3503" d="M2909.547 956.249q48.463 15.306 31.906-31.906 34.433-14.030 25.508-57.388-52.291 16.582-38.261-25.508l414.476-140.283v-60.173l-655.607-11.952 127.313-75.634v-321.646l-127.313-63.536c810.247 13.883 806.108 10.684 800.046 3.777-10.167-10.874-14.53-33.174-10.529-63.812l-31.906-31.906h-395.375v51.015h-414.476v529.216l31.906 6.373 70.141 12.754 6.373 25.508h280.574l25.508-12.754 95.649 31.906-350.715 121.156h-133.927v63.786h133.91z" />
            <glyph unicode="&#xe95f;" horiz-adv-x="3503" d="M2284.475 746.239l-32.673-12.254 4.527-292.69-4.527-284.886h231.792v271.037s51.938 39.4-5.579 54.689-176.776 0-176.776 0 19.204 12.4 15.013 65.493-31.777 198.61-31.777 198.61z" />
            <glyph unicode="&#xe960;" horiz-adv-x="3503" d="M3387.774 12.514c0-42.262-34.26-76.523-76.523-76.523s-76.523 34.26-76.523 76.523c0 42.262 34.26 76.523 76.523 76.523s76.523-34.26 76.523-76.523z" />
            <glyph unicode="&#xe961;" horiz-adv-x="3503" d="M2480.464 38.021c0-56.345-45.677-102.021-102.021-102.021s-102.021 45.677-102.021 102.021c0 56.345 45.677 102.021 102.021 102.021s102.021-45.677 102.021-102.021z" />
            <glyph unicode="&#xe962;" horiz-adv-x="3503" d="M1964.7 38.021c0-56.345-45.677-102.021-102.021-102.021s-102.021 45.677-102.021 102.021c0 56.345 45.677 102.021 102.021 102.021s102.021-45.677 102.021-102.021z" />
            <glyph unicode="&#xe963;" horiz-adv-x="3503" d="M412.518 38.021c0-56.345-45.677-102.021-102.021-102.021s-102.021 45.677-102.021 102.021c0 56.345 45.677 102.021 102.021 102.021s102.021-45.677 102.021-102.021z" />
            <glyph unicode="&#xe964;" horiz-adv-x="3503" d="M1188.609 38.021c0-56.345-45.677-102.021-102.021-102.021s-102.021 45.677-102.021 102.021c0 56.345 45.677 102.021 102.021 102.021s102.021-45.677 102.021-102.021z" />
            <glyph unicode="&#xe965;" horiz-adv-x="1821" d="M328.799-64c-126.929 0.084-229.793 102.999-229.793 229.94 0 94.625 57.158 175.9 138.831 211.183l1.491 0.573c26.408 11.459 57.166 18.125 89.481 18.125 126.993 0 229.941-102.948 229.941-229.941 0-94.678-57.221-175.991-138.968-211.243l-1.493-0.573c-26.275-11.421-56.88-18.065-89.038-18.065-0.159 0-0.319 0-0.478 0h0.025zM328.799 342.903c-97.372-0.126-176.258-79.090-176.258-176.479 0-97.467 79.012-176.479 176.479-176.479s176.479 79.012 176.479 176.479c0 72.666-43.919 135.075-106.66 162.13l-1.145 0.439c-20.238 8.8-43.812 13.92-68.582 13.92-0.109 0-0.219 0-0.328 0h0.017z" />
            <glyph unicode="&#xe966;" horiz-adv-x="1821" d="M1531.523-58.035c-159.905 0.095-289.496 129.745-289.496 289.663 0 119.206 72.008 221.594 174.899 266.039l1.878 0.722c33.267 14.434 72.012 22.831 112.719 22.831 159.978 0 289.666-129.688 289.666-289.666 0-119.271-72.086-221.706-175.067-266.114l-1.88-0.722c-33.098-14.385-71.651-22.754-112.159-22.754-0.197 0-0.394 0-0.591 0.001h0.030zM1531.523 454.564c-122.645-0.186-221.996-99.652-221.996-222.322 0-122.785 99.537-222.322 222.322-222.322s222.322 99.537 222.322 222.322c0 91.554-55.341 170.182-134.396 204.258l-1.443 0.554c-25.479 11.071-55.156 17.511-86.338 17.511-0.166 0-0.332 0-0.498-0.001h0.026z" />
            <glyph unicode="&#xe967;" horiz-adv-x="1821" d="M271.895 148.162c-8.534-15.578-24.817-25.965-43.526-25.965-27.318 0-49.464 22.146-49.464 49.464s22.146 49.464 49.464 49.464c16.67 0 31.414-8.246 40.376-20.882l0.103-0.154 165.517 65.867h-334.774l-11.773 3.957-12.742 16.63-74.147 335.457c-0.706 2.229-1.113 4.792-1.113 7.45 0 4.46 1.145 8.652 3.158 12.299l-0.066-0.131 12.732 10.793h632.282l-11.268-35.219h-601.189l13.573-60.287h564.101l-11.763-31.291h-546.58l13.573-65.57h508.602l-10.279-31.489-485.561 0.198 6.084-47.357 6.628-4.491h498.115l112.254 302.998 23.743-9.22-127.173-338.524 186.391 74.196-41.174 247.796h43.598l33.725-235.371 537.083 216.050-78.53 226.883-115.746 43.192-19.538 12.623q-8.28 6.668-4.59 25.247l10.358 12.633 9.2 4.59 20.716-2.295 94.348-36.722 36.811-16.076 8.053-8.033 190.022-633.143 35.367-23.743-7.162-14.414-49.464 20.399-109.623 321.785-542.693-195.829 69.517-117.507c10.091 0.663 17.026 0.989 20.053 0.989 1.274 0.069 2.766 0.109 4.267 0.109 46.228 0 83.703-37.475 83.703-83.703s-37.475-83.703-83.703-83.703c-1.501 0-2.993 0.040-4.474 0.118l0.207-0.009c-29.154 0.040-498.778 44.884-655.61 59.941zM353.185 201.712l522.956 50.454-72.218 107.981z" />
            <glyph unicode="&#xe968;" horiz-adv-x="1821" d="M229.88-64c-126.929 0.084-229.793 102.999-229.793 229.94 0 94.625 57.158 175.9 138.831 211.183l1.491 0.573c26.408 11.459 57.166 18.125 89.481 18.125 126.993 0 229.941-102.948 229.941-229.941 0-94.678-57.221-175.991-138.968-211.243l-1.493-0.573c-26.275-11.421-56.88-18.065-89.038-18.065-0.159 0-0.319 0-0.478 0h0.025zM229.88 342.903c-97.372-0.126-176.258-79.090-176.258-176.479 0-97.467 79.012-176.479 176.479-176.479s176.479 79.012 176.479 176.479c0 72.666-43.919 135.075-106.66 162.13l-1.145 0.439c-20.238 8.8-43.812 13.92-68.582 13.92-0.109 0-0.219 0-0.328 0h0.017z" />
            <glyph unicode="&#xe969;" glyph-name="iconFAQ" d="M1005.158 448c-1.638 272.091-221.184 491.52-493.158 491.52s-491.52-219.429-491.52-491.52c0-87.771 22.938-168.521 62.259-240.494 4.915-8.777 6.554-19.31 3.277-28.087l-45.875-156.233c-8.192-28.087 16.384-52.663 42.598-43.886l144.179 54.418c9.83 3.511 19.661 1.755 27.853-3.511 75.366-47.397 163.84-73.728 258.867-73.728 271.974 0 491.52 219.429 491.52 491.52zM561.152 184.686v-35.109c0-19.31-14.746-35.109-32.768-35.109h-32.768c-18.022 0-32.768 15.799-32.768 35.109v35.109c0 19.31 14.746 35.109 32.768 35.109h32.768c18.022 0 32.768-15.799 32.768-35.109zM706.97 576.146c3.277-91.282-49.152-173.787-132.71-203.63-6.554-1.755-13.107-8.777-13.107-17.554v-28.087c0-19.31-14.746-36.864-32.768-36.864h-32.768c-18.022 0-32.768 17.554-32.768 36.864v28.087c0 52.663 32.768 100.059 80.282 117.614 18.022 7.022 34.406 15.799 44.237 31.598 55.706 78.994 0 170.277-73.728 172.032-26.214 1.755-52.429-10.533-72.090-29.842-13.107-14.043-22.938-31.598-26.214-49.152-3.277-15.799-16.384-28.087-31.13-28.087h-34.406c-19.661 0-36.045 21.065-32.768 42.13 8.192 42.13 26.214 80.75 55.706 110.592 37.683 40.375 88.474 61.44 142.541 59.685 103.219-3.511 188.416-94.793 191.693-205.385z" />
            <glyph unicode="&#xe96a;" horiz-adv-x="1881" d="M1479.361-63.989c103.166 0.045 186.78 83.687 186.78 186.86 0 76.897-46.45 142.946-112.822 171.618l-1.211 0.466c-21.469 9.319-46.474 14.741-72.747 14.741-103.208 0-186.875-83.667-186.875-186.875 0-76.936 46.493-143.014 112.916-171.668l1.212-0.466c21.349-9.279 46.217-14.678 72.344-14.678 0.141 0 0.283 0 0.424 0.001h-0.021zM1479.361 216.241c0 0 0 0 0 0 51.579 0 93.39-41.812 93.39-93.39s-41.812-93.39-93.39-93.39c-51.579 0-93.39 41.812-93.39 93.39 0 25.786 10.451 49.132 27.349 66.031v0c16.811 16.9 40.083 27.359 65.797 27.359 0.086 0 0.172 0 0.258 0h-0.013z" />
            <glyph unicode="&#xe96b;" horiz-adv-x="1881" d="M560.871-63.989c103.166 0.045 186.78 83.687 186.78 186.86 0 76.897-46.45 142.946-112.822 171.618l-1.211 0.466c-21.469 9.319-46.474 14.741-72.747 14.741-103.208 0-186.875-83.667-186.875-186.875 0-76.936 46.493-143.014 112.916-171.668l1.212-0.466c21.349-9.279 46.217-14.678 72.344-14.678 0.141 0 0.283 0 0.424 0.001h-0.021zM560.871 216.241c0 0 0 0 0 0 51.579 0 93.39-41.812 93.39-93.39s-41.812-93.39-93.39-93.39c-51.579 0-93.39 41.812-93.39 93.39 0 25.786 10.451 49.132 27.349 66.031v0c16.811 16.9 40.083 27.359 65.797 27.359 0.086 0 0.172 0 0.258 0h-0.013z" />
            <glyph unicode="&#xe96c;" horiz-adv-x="1879" d="M898.57 816.818h-32.975l20.769-181.38 41.033 10.157s7.917 26.041 0 87.521-28.826 83.702-28.826 83.702z" />
            <glyph unicode="&#xe96d;" horiz-adv-x="1879" d="M486.314-64.008c87.971 0.003 159.285 71.318 159.285 159.289 0 43.987-17.83 83.81-46.656 112.636v0c-28.97 29.751-69.412 48.207-114.165 48.207-87.973 0-159.289-71.316-159.289-159.289 0-44.753 18.456-85.195 48.171-114.131l0.035-0.034c28.67-28.833 68.364-46.678 112.226-46.678 0.139 0 0.277 0 0.416 0.001h-0.021zM486.314 181.752c47.753-0.005 86.463-38.717 86.463-86.471 0-47.757-38.714-86.471-86.471-86.471s-86.471 38.714-86.471 86.471c0 0.003 0 0.006 0 0.009v0c0.056 47.735 38.743 86.416 86.475 86.463h0.005z" />
            <glyph unicode="&#xe96e;" horiz-adv-x="1879" d="M1719.719-41.248c87.971 0.003 159.285 71.318 159.285 159.289 0 43.987-17.83 83.81-46.656 112.636v0c-28.97 29.751-69.412 48.207-114.165 48.207-87.973 0-159.289-71.316-159.289-159.289 0-44.753 18.456-85.195 48.171-114.131l0.035-0.034c28.67-28.833 68.364-46.678 112.226-46.678 0.139 0 0.277 0 0.416 0.001h-0.021zM1719.719 204.512c47.753-0.005 86.463-38.717 86.463-86.471 0-47.757-38.714-86.471-86.471-86.471s-86.471 38.714-86.471 86.471c0 0.003 0 0.006 0 0.009v0c0.056 47.735 38.743 86.416 86.475 86.463h0.005z" />
            <glyph unicode="&#xe96f;" horiz-adv-x="1879" d="M1372.652 939.835l-38.373-197.403c0.274-1.156 0.75-2.394 1.407-3.581 3.923-7.078 12.842-9.635 19.92-5.712 1.968 1.091 3.587 2.568 4.814 4.285l-0.059-0.076 27.388 82.346 26.568-7.375 4.98 25.637-26.564 7.368 6.008 89.431s-1.573 11.856-10.888 13.676-15.201-8.596-15.201-8.596z" />
            <glyph unicode="&#xe970;" horiz-adv-x="1879" d="M655.165 15.628v0h919.992l263.504 301.694h40.339v49.050h-416.893v474.496l92.76 94.57v24.562l-145.157-119.132-20.017-476.033v-271.248h-466.231v271.24l-58.124 443.934-38.496-11.322 38.496-431.074-848.413-1.545v-251.669l-17.017-22.149v-47.041l28.372-28.322h297.273c-13.014 24.848-20.653 54.279-20.661 85.493v0.003c0 102.424 83.031 185.455 185.455 185.455s185.455-83.031 185.455-185.455v0c-0.009-31.217-7.648-60.648-21.153-86.532l0.492 1.036z" />
            <glyph unicode="&#xe971;" horiz-adv-x="1879" d="M865.595 401.281h-853.719v-45.512h853.719v45.512z" />
            <glyph unicode="&#xe972;" horiz-adv-x="1879" d="M1879 401.281h-489.24v-45.512h489.24v45.512z" />
            <glyph unicode="&#xe973;" glyph-name="iconDragDrop" horiz-adv-x="1496" d="M505.099 947.918l-70.031-233.478c-0.070-0.704-0.11-1.521-0.11-2.347 0-10.378 6.29-19.287 15.266-23.123l0.164-0.062 245.088-58.393c17.956-4.626 27.67 12.951 16.726 31.185l-51.427 85.73c94.916 52.731 243.451 16.115 298.152-75.091l113.899 63.296c-98.468 164.179-306.848 216.179-477.697 121.235l-53.573 89.375c-10.981 18.243-33.535 17.864-36.458 1.674zM804.408 267.308c-17.956 4.626-27.67-12.951-16.726-31.185l52.518-87.552c-113.908-63.296-234.699-30.714-300.345 78.69l-113.936-63.25c63.298-103.495 175.697-171.515 303.983-171.515 64.705 0 125.368 17.304 177.615 47.538l-1.709-0.912 53.656-89.375c10.944-18.243 33.498-17.864 36.421-1.647l68.939 235.301c0.070 0.704 0.11 1.521 0.11 2.347 0 10.378-6.29 19.287-15.266 23.123l-0.164 0.062zM1035.943 590.735l424.041-7.188c0.309 0.010 0.673 0.016 1.037 0.016 18.973 0 34.373-15.296 34.542-34.228v-0.016l-0.157-205.438c0.002-0.128 0.003-0.278 0.003-0.429 0-17.806-14.434-32.24-32.24-32.24-1.197 0-2.379 0.065-3.542 0.192l0.144-0.013h-427.251c-1.155-0.149-2.49-0.234-3.845-0.234-17.53 0-31.74 14.211-31.74 31.74 0 0.222 0.002 0.444 0.007 0.665l-0.001-0.033 0.157 205.438c0.009 19.187 18.909 41.75 38.845 41.769zM498.623 548.615l-0.157-205.438c0.005-0.218 0.009-0.474 0.009-0.731 0-17.31-14.033-31.343-31.343-31.343-1.517 0-3.009 0.108-4.468 0.316l0.167-0.020h-427.251c-1.423-0.232-3.062-0.365-4.733-0.365-17.044 0-30.862 13.817-30.862 30.862 0 0.337 0.005 0.672 0.016 1.006l-0.001-0.049 0.157 205.42c0.238 18.962 15.665 34.243 34.661 34.243 0.342 0 0.684-0.005 1.024-0.015l-0.050 0.001 427.26 0.305c0.306 0.010 0.667 0.015 1.029 0.015 18.96 0 34.352-15.275 34.542-34.189v-0.018z" />
        </font>
</defs>
</svg>
